<?xml version="1.0" encoding="UTF-8"?>
<!DOCTYPE svg PUBLIC "-//W3C//DTD SVG 1.1//EN" "http://www.w3.org/Graphics/SVG/1.1/DTD/svg11.dtd">
<!-- Creator: CorelDRAW X7 -->
<svg xmlns="http://www.w3.org/2000/svg" xml:space="preserve" width="318.262mm" height="139.695mm" version="1.1" style="shape-rendering:geometricPrecision; text-rendering:geometricPrecision; image-rendering:optimizeQuality; fill-rule:evenodd; clip-rule:evenodd"
viewBox="0 0 7935 3483"
 xmlns:xlink="http://www.w3.org/1999/xlink">
 <defs>
  <style type="text/css">
   <![CDATA[
    .fil0 {fill:#FEFEFE}
    .fil1 {fill:#2B2A29;fill-rule:nonzero}
    .fil4 {fill:#2B2A29;fill-rule:nonzero}
    .fil2 {fill:#E31E24;fill-rule:nonzero}
    .fil3 {fill:#942420;fill-rule:nonzero}
    .fil6 {fill:#932420;fill-rule:nonzero}
    .fil5 {fill:#00A0E3;fill-rule:nonzero}
   ]]>
  </style>
 </defs>
 <g id="Layer_x0020_1">
  <metadata id="CorelCorpID_0Corel-Layer"/>
  <polygon class="fil0" points="7935,3483 0,3483 0,0 7935,0 "/>
  <path class="fil1" d="M3899 962l-3768 0 0 2390 3768 0 0 -2390zm-3774 -12l3780 0 6 0 0 6 0 2402 0 7 -6 0 -3780 0 -7 0 0 -7 0 -2402 0 -6 7 0z"/>
  <polygon class="fil2" points="2443,2949 1566,2724 1572,2700 2450,2925 "/>
  <g id="_525925868096">
   <path class="fil3" d="M2714 2672c77,0 147,32 198,82 51,51 82,121 82,199 0,77 -31,147 -82,198 -51,50 -121,82 -198,82 -78,0 -148,-32 -198,-82 -51,-51 -82,-121 -82,-198 0,-78 31,-148 82,-199 50,-50 120,-82 198,-82zm180 100c-46,-46 -110,-75 -180,-75 -71,0 -135,29 -181,75 -46,46 -74,110 -74,181 0,70 28,134 74,180 46,46 110,75 181,75 70,0 134,-29 180,-75 47,-46 75,-110 75,-180 0,-71 -28,-135 -75,-181z"/>
   <path class="fil3" d="M2578 2988c0,13 -4,24 -12,31 -8,7 -19,11 -32,11 -15,0 -27,-2 -35,-7l0 -17c5,3 11,5 17,6 6,2 12,3 18,3 10,0 17,-2 22,-7 5,-4 8,-10 8,-18 0,-6 -1,-10 -3,-13 -2,-4 -5,-7 -9,-9 -4,-3 -10,-6 -19,-10 -11,-5 -20,-11 -25,-18 -5,-7 -7,-16 -7,-27 0,-11 4,-21 11,-27 7,-7 17,-11 29,-11 12,0 24,3 34,8l-4 16c-11,-6 -21,-8 -31,-8 -7,0 -13,2 -18,6 -4,4 -6,9 -6,16 0,6 1,10 2,13 2,4 4,7 8,9 4,3 10,6 18,10 13,5 22,11 27,18 5,6 7,15 7,25zm105 40l-16 -48 -50 0 -16 48 -14 0 49 -151 13 0 49 151 -15 0zm-20 -64l-15 -46c-2,-6 -4,-14 -6,-22 -1,6 -3,14 -5,22l-15 46 41 0zm143 64l-17 0 -46 -73 -13 14 0 59 -15 0 0 -151 15 0 0 75 57 -75 17 0 -51 66 53 85zm122 -75c0,24 -5,43 -15,56 -10,14 -24,21 -42,21 -19,0 -33,-7 -43,-20 -10,-14 -15,-33 -15,-58 0,-24 5,-43 15,-57 10,-13 24,-20 43,-20 18,0 32,7 42,21 10,13 15,32 15,57zm-100 -1c0,21 4,36 11,47 7,10 18,16 32,16 14,0 24,-5 31,-16 7,-11 11,-26 11,-47 0,-20 -4,-35 -11,-46 -7,-10 -17,-15 -31,-15 -14,0 -25,5 -32,15 -7,11 -11,26 -11,46z"/>
  </g>
  <polygon class="fil2" points="689,3027 1041,2739 1056,2758 705,3047 "/>
  <polygon class="fil2" points="1265,2409 1040,1859 1063,1849 1288,2399 "/>
  <polygon class="fil2" points="1443,2444 1767,1529 1791,1537 1467,2453 "/>
  <polygon class="fil4" points="1145,1599 1587,1344 1599,1365 1157,1620 "/>
  <g id="_525925870336">
   <polygon class="fil2" points="2405,1402 2540,1402 2540,1427 2405,1427 "/>
   <polygon class="fil1" points="2405,1539 2540,1539 2540,1564 2405,1564 "/>
   <path class="fil1" d="M2583 1253l0 -88 19 0 0 73 36 0 0 15 -55 0zm120 0l-50 0 0 -88 50 0 0 16 -32 0 0 19 30 0 0 15 -30 0 0 23 32 0 0 15zm52 -49l35 0 0 46c-6,1 -11,3 -16,3 -5,1 -10,2 -15,2 -14,0 -24,-4 -31,-12 -7,-8 -10,-19 -10,-34 0,-14 4,-25 12,-33 8,-8 19,-12 34,-12 9,0 17,2 26,6l-6 14c-7,-3 -13,-4 -20,-4 -8,0 -15,2 -20,8 -5,5 -7,13 -7,22 0,9 2,16 6,21 4,6 9,8 17,8 4,0 8,0 12,-1l0 -19 -17 0 0 -15zm107 49l-51 0 0 -88 51 0 0 16 -32 0 0 19 29 0 0 15 -29 0 0 23 32 0 0 15zm96 0l-24 0 -38 -66 -1 0c1,12 2,20 2,25l0 41 -17 0 0 -88 23 0 39 66 0 0c-1,-11 -1,-19 -1,-24l0 -42 17 0 0 88zm95 -44c0,14 -4,25 -12,33 -9,7 -21,11 -36,11l-25 0 0 -88 28 0c14,0 25,4 33,12 8,7 12,18 12,32zm-20 0c0,-19 -8,-28 -25,-28l-9 0 0 57 8 0c18,0 26,-10 26,-29zm89 44l-6 -21 -32 0 -6 21 -20 0 31 -88 22 0 32 88 -21 0zm-10 -36c-6,-19 -10,-30 -10,-32 -1,-3 -2,-5 -2,-6 -1,5 -5,18 -11,38l23 0z"/>
   <g>
    <path class="fil1" d="M2619 1441c-4,0 -7,0 -11,-2 -3,-1 -5,-3 -7,-6l-1 0c1,3 1,7 1,9l0 24 -9 0 0 -82 7 0 1 8 1 0c2,-4 5,-6 8,-7 2,-1 6,-2 10,-2 7,0 13,2 17,8 4,5 6,12 6,21 0,9 -2,17 -6,22 -4,5 -10,7 -17,7zm-2 -51c-5,0 -10,2 -12,5 -3,3 -4,8 -4,15l0 2c0,8 1,14 4,17 2,4 7,5 13,5 4,0 8,-2 11,-6 3,-4 4,-9 4,-16 0,-7 -1,-12 -4,-16 -3,-4 -7,-6 -12,-6zm68 50l-2 -8 0 0c-3,4 -6,6 -9,8 -3,1 -6,1 -10,1 -6,0 -10,-1 -13,-4 -4,-3 -5,-7 -5,-12 0,-12 9,-18 27,-18l10 -1 0 -3c0,-4 -1,-8 -3,-10 -2,-2 -5,-3 -9,-3 -5,0 -10,1 -16,4l-3 -6c3,-2 6,-3 9,-4 4,-1 7,-1 10,-1 7,0 12,1 15,4 4,3 5,8 5,15l0 38 -6 0zm-20 -6c6,0 10,-1 13,-4 3,-3 5,-7 5,-12l0 -5 -9 0c-7,0 -12,1 -15,3 -3,2 -4,5 -4,9 0,3 1,5 3,7 2,2 4,2 7,2zm63 -51c2,0 4,0 6,0l-1 8c-2,0 -4,0 -6,0 -4,0 -8,1 -12,5 -3,4 -5,9 -5,14l0 30 -8 0 0 -56 7 0 1 10 0 0c2,-3 5,-6 8,-8 3,-2 6,-3 10,-3zm57 29c0,9 -3,16 -7,22 -5,5 -11,7 -19,7 -5,0 -10,-1 -14,-3 -4,-3 -7,-6 -9,-10 -2,-5 -3,-10 -3,-16 0,-9 2,-16 7,-21 4,-6 11,-8 19,-8 8,0 14,2 19,8 4,5 7,12 7,21zm-43 0c0,7 1,13 4,17 3,3 7,5 13,5 5,0 10,-2 13,-5 2,-4 4,-10 4,-17 0,-7 -2,-13 -4,-16 -3,-4 -8,-6 -13,-6 -6,0 -10,2 -13,6 -3,3 -4,9 -4,16zm61 28l-21 -56 9 0 12 33c3,8 4,13 5,16l0 0c1,-2 2,-6 4,-12 2,-5 6,-18 13,-37l10 0 -22 56 -10 0zm83 -28c0,9 -3,16 -7,22 -5,5 -11,7 -20,7 -5,0 -9,-1 -13,-3 -4,-3 -7,-6 -9,-10 -2,-5 -3,-10 -3,-16 0,-9 2,-16 7,-21 4,-6 11,-8 19,-8 8,0 14,2 19,8 4,5 7,12 7,21zm-43 0c0,7 1,13 4,17 3,3 7,5 13,5 5,0 9,-2 12,-5 3,-4 5,-10 5,-17 0,-7 -2,-13 -5,-16 -3,-4 -7,-6 -12,-6 -6,0 -10,2 -13,6 -3,3 -4,9 -4,16zm89 21l0 0c-4,6 -10,8 -18,8 -7,0 -13,-2 -17,-7 -4,-5 -6,-12 -6,-22 0,-9 2,-16 6,-21 4,-6 10,-8 17,-8 8,0 14,3 18,8l0 0 0 -4 0 -4 0 -23 8 0 0 80 -7 0 -1 -7zm-17 1c6,0 10,-1 13,-5 2,-3 4,-8 4,-15l0 -2c0,-8 -2,-13 -4,-17 -3,-3 -7,-5 -13,-5 -5,0 -9,2 -12,6 -2,4 -4,9 -4,16 0,8 2,13 4,17 3,3 7,5 12,5zm28 -50l9 0 12 32c3,7 5,13 5,16l1 0c0,-2 1,-5 2,-9 2,-4 7,-17 14,-39l10 0 -25 64c-2,7 -5,11 -8,14 -3,2 -7,4 -12,4 -3,0 -5,-1 -8,-1l0 -7c2,0 4,1 7,1 6,0 10,-4 12,-10l3 -8 -22 -57zm-312 200l0 -36c0,-5 -1,-8 -3,-11 -2,-2 -6,-3 -10,-3 -6,0 -10,1 -13,5 -3,3 -4,8 -4,16l0 29 -9 0 0 -80 9 0 0 24c0,3 0,6 -1,7l1 0c2,-2 4,-4 7,-6 3,-2 7,-2 11,-2 7,0 12,1 15,5 4,3 5,8 5,15l0 37 -8 0zm68 -28c0,9 -2,16 -7,21 -5,6 -11,8 -19,8 -5,0 -10,-1 -14,-3 -4,-3 -7,-6 -9,-11 -2,-4 -3,-9 -3,-15 0,-9 2,-17 7,-22 5,-5 11,-7 19,-7 8,0 14,2 19,7 5,6 7,13 7,22zm-43 0c0,7 1,13 4,16 3,4 7,6 13,6 6,0 10,-2 13,-6 3,-3 4,-9 4,-16 0,-7 -1,-13 -4,-17 -3,-3 -7,-5 -13,-5 -6,0 -10,2 -13,5 -3,4 -4,10 -4,17zm77 -29c2,0 5,0 7,0l-2 8c-2,0 -4,-1 -6,-1 -4,0 -8,2 -11,6 -4,4 -5,8 -5,14l0 30 -9 0 0 -56 7 0 1 10 1 0c2,-4 4,-6 7,-8 3,-2 6,-3 10,-3zm19 28c1,-2 3,-5 7,-8l18 -19 10 0 -23 24 25 32 -11 0 -20 -27 -6 6 0 21 -9 0 0 -80 9 0 0 42c0,2 0,5 -1,9l1 0zm86 1c0,9 -2,16 -6,21 -5,6 -12,8 -20,8 -5,0 -9,-1 -13,-3 -4,-3 -7,-6 -9,-11 -2,-4 -3,-9 -3,-15 0,-9 2,-17 7,-22 4,-5 11,-7 19,-7 8,0 14,2 19,7 4,6 6,13 6,22zm-43 0c0,7 2,13 5,16 3,4 7,6 13,6 5,0 9,-2 12,-6 3,-3 5,-9 5,-16 0,-7 -2,-13 -5,-17 -3,-3 -7,-5 -13,-5 -5,0 -9,2 -12,5 -3,4 -5,10 -5,17zm62 28l-22 -56 10 0 12 33c3,8 4,13 5,15l0 0c0,-1 2,-5 4,-11 2,-6 6,-18 13,-37l9 0 -21 56 -10 0zm82 -28c0,9 -2,16 -7,21 -4,6 -11,8 -19,8 -5,0 -9,-1 -13,-3 -4,-3 -7,-6 -9,-11 -3,-4 -4,-9 -4,-15 0,-9 3,-17 7,-22 5,-5 11,-7 19,-7 8,0 15,2 19,7 5,6 7,13 7,22zm-43 0c0,7 2,13 5,16 2,4 7,6 12,6 6,0 10,-2 13,-6 3,-3 4,-9 4,-16 0,-7 -1,-13 -4,-17 -3,-3 -7,-5 -13,-5 -5,0 -10,2 -12,5 -3,4 -5,10 -5,17zm90 21l-1 0c-4,5 -9,8 -17,8 -8,0 -13,-2 -18,-7 -4,-5 -6,-13 -6,-22 0,-9 2,-17 6,-22 5,-5 10,-7 18,-7 7,0 13,2 17,8l1 0 0 -4 -1 -4 0 -23 9 0 0 80 -7 0 -1 -7zm-17 1c6,0 10,-2 12,-5 3,-3 4,-8 4,-15l0 -2c0,-8 -1,-14 -4,-17 -2,-4 -6,-5 -12,-5 -5,0 -9,2 -12,6 -3,3 -4,9 -4,16 0,7 1,13 4,16 3,4 7,6 12,6zm27 -50l9 0 13 32c3,7 4,12 5,16l0 0c1,-2 2,-5 3,-9 2,-5 6,-18 14,-39l9 0 -24 64c-2,6 -5,11 -8,13 -4,3 -8,4 -12,4 -3,0 -5,0 -8,0l0 -7c2,0 4,0 6,0 6,0 10,-3 13,-10l3 -8 -23 -56zm-360 180c0,6 -2,12 -7,15 -5,4 -11,6 -20,6 -9,0 -16,-1 -20,-4l0 -8c3,1 6,2 10,3 3,1 7,1 11,1 5,0 10,-1 13,-3 3,-2 4,-5 4,-9 0,-3 0,-5 -1,-7 -1,-1 -3,-3 -6,-4 -2,-2 -6,-3 -11,-5 -7,-3 -12,-6 -15,-9 -3,-4 -4,-8 -4,-14 0,-5 2,-10 6,-13 5,-4 10,-6 18,-6 7,0 14,2 20,5l-3 7c-6,-2 -12,-4 -18,-4 -4,0 -8,1 -11,3 -2,2 -3,5 -3,9 0,2 0,4 1,6 1,2 3,3 5,5 2,1 6,2 10,4 8,3 14,6 17,9 3,3 4,8 4,13zm56 20l-9 -24 -31 0 -9 24 -9 0 30 -76 7 0 30 76 -9 0zm-12 -32l-9 -23c-1,-3 -2,-7 -3,-11 -1,3 -2,7 -4,11l-8 23 24 0zm79 32l-10 0 -28 -37 -8 7 0 30 -8 0 0 -76 8 0 0 38 35 -38 10 0 -30 33 31 43zm67 -38c0,12 -3,22 -9,29 -6,6 -15,10 -26,10 -11,0 -19,-4 -25,-10 -7,-7 -10,-17 -10,-29 0,-12 3,-22 10,-29 6,-6 14,-10 25,-10 11,0 20,4 26,11 6,6 9,16 9,28zm-60 0c0,10 2,18 6,23 5,6 11,8 19,8 9,0 15,-2 19,-8 4,-5 7,-13 7,-23 0,-10 -3,-18 -7,-23 -4,-5 -10,-8 -19,-8 -8,0 -14,3 -19,8 -4,5 -6,13 -6,23zm172 18c0,6 -2,12 -7,15 -5,4 -12,6 -20,6 -9,0 -16,-1 -20,-4l0 -8c3,1 6,2 10,3 3,1 7,1 10,1 6,0 11,-1 14,-3 3,-2 4,-5 4,-9 0,-3 0,-5 -1,-7 -2,-1 -3,-3 -6,-4 -2,-2 -6,-3 -11,-5 -7,-3 -12,-6 -15,-9 -3,-4 -5,-8 -5,-14 0,-5 3,-10 7,-13 4,-4 10,-6 17,-6 8,0 15,2 21,5l-3 7c-6,-2 -12,-4 -18,-4 -4,0 -8,1 -11,3 -2,2 -4,5 -4,9 0,2 1,4 2,6 1,2 2,3 5,5 2,1 5,2 10,4 8,3 14,6 16,9 3,3 5,8 5,13zm33 21c-3,0 -7,-1 -10,-2 -3,-2 -5,-4 -7,-6l-1 0c1,3 1,6 1,9l0 23 -9 0 0 -82 7 0 1 8 1 0c2,-3 5,-5 7,-7 3,-1 7,-2 10,-2 8,0 14,3 18,8 4,5 6,12 6,22 0,9 -2,16 -6,21 -4,5 -10,8 -18,8zm-1 -51c-6,0 -10,1 -12,4 -3,4 -4,9 -4,16l0 2c0,7 1,13 4,17 2,3 7,5 12,5 5,0 9,-2 12,-6 3,-4 4,-10 4,-17 0,-7 -1,-12 -4,-16 -3,-4 -7,-5 -12,-5zm68 50l-2 -8 0 0c-3,3 -6,6 -9,7 -3,1 -6,2 -10,2 -6,0 -10,-2 -13,-4 -4,-3 -5,-7 -5,-13 0,-11 9,-17 27,-18l10 0 0 -4c0,-4 -1,-7 -3,-9 -2,-2 -5,-4 -9,-4 -5,0 -10,2 -16,5l-3 -7c3,-1 6,-2 9,-3 4,-1 7,-2 10,-2 7,0 12,2 15,5 3,3 5,8 5,14l0 39 -6 0zm-20 -6c6,0 10,-2 13,-5 3,-3 5,-7 5,-12l0 -5 -9 0c-7,1 -12,2 -15,4 -3,1 -4,4 -4,8 0,3 1,6 3,7 1,2 4,3 7,3zm45 6l-8 0 0 -80 8 0 0 80zm60 -28c0,9 -2,16 -6,21 -5,5 -12,8 -20,8 -5,0 -9,-1 -13,-4 -4,-2 -7,-5 -9,-10 -2,-4 -3,-10 -3,-15 0,-10 2,-17 6,-22 5,-5 11,-8 20,-8 8,0 14,3 18,8 5,5 7,13 7,22zm-43 0c0,7 2,12 5,16 3,4 7,6 13,6 5,0 9,-2 12,-6 3,-4 5,-9 5,-16 0,-8 -2,-13 -5,-17 -3,-4 -7,-5 -13,-5 -5,0 -9,1 -12,5 -3,4 -5,9 -5,17zm62 28l-22 -57 10 0 12 34c3,8 4,13 5,15l0 0c0,-2 2,-6 4,-11 2,-6 6,-18 13,-38l9 0 -21 57 -10 0zm72 0l0 -37c0,-4 -1,-8 -3,-10 -2,-2 -5,-3 -10,-3 -6,0 -10,1 -13,4 -3,4 -4,9 -4,16l0 30 -8 0 0 -57 6 0 2 8 0 0c2,-3 4,-5 8,-6 3,-2 6,-3 10,-3 7,0 12,2 16,5 3,3 5,9 5,16l0 37 -9 0zm54 0l-2 -8 0 0c-3,3 -6,6 -8,7 -3,1 -7,2 -11,2 -5,0 -10,-2 -13,-4 -3,-3 -5,-7 -5,-13 0,-11 9,-17 28,-18l9 0 0 -4c0,-4 -1,-7 -3,-9 -2,-2 -5,-4 -9,-4 -5,0 -10,2 -16,5l-2 -7c2,-1 5,-2 9,-3 3,-1 6,-2 10,-2 6,0 11,2 15,5 3,3 5,8 5,14l0 39 -7 0zm-19 -6c5,0 9,-2 12,-5 3,-3 5,-7 5,-12l0 -5 -9 0c-6,1 -11,2 -14,4 -3,1 -5,4 -5,8 0,3 1,6 3,7 2,2 4,3 8,3zm65 -23c2,-2 4,-5 7,-8l18 -20 10 0 -22 24 24 33 -10 0 -20 -27 -7 6 0 21 -8 0 0 -80 8 0 0 42c0,2 0,5 0,9l0 0zm87 1c0,9 -2,16 -7,21 -5,5 -11,8 -19,8 -5,0 -10,-1 -14,-4 -4,-2 -7,-5 -9,-10 -2,-4 -3,-10 -3,-15 0,-10 2,-17 7,-22 5,-5 11,-8 19,-8 8,0 14,3 19,8 5,5 7,13 7,22zm-43 0c0,7 1,12 4,16 3,4 7,6 13,6 6,0 10,-2 13,-6 3,-4 4,-9 4,-16 0,-8 -1,-13 -4,-17 -3,-4 -7,-5 -13,-5 -6,0 -10,1 -13,5 -3,4 -4,9 -4,17zm123 28l0 -37c0,-4 -1,-8 -3,-10 -2,-2 -5,-3 -9,-3 -5,0 -9,1 -11,4 -3,3 -4,8 -4,14l0 32 -9 0 0 -37c0,-4 -1,-8 -3,-10 -2,-2 -5,-3 -9,-3 -5,0 -9,1 -12,4 -2,4 -3,9 -3,16l0 30 -9 0 0 -57 7 0 2 8 0 0c2,-3 4,-5 7,-6 3,-2 6,-3 10,-3 8,0 14,3 17,10l0 0c2,-3 4,-5 8,-7 3,-2 7,-3 11,-3 6,0 11,2 14,5 3,3 5,9 5,16l0 37 -9 0zm18 -6c0,-2 1,-4 2,-5 1,-1 2,-2 4,-2 2,0 4,1 5,2 1,1 2,3 2,5 0,3 -1,4 -2,5 -1,2 -3,2 -5,2 -1,0 -3,0 -4,-1 -1,-1 -2,-3 -2,-6zm92 -22c0,9 -2,16 -7,21 -5,5 -11,8 -19,8 -5,0 -10,-1 -14,-4 -3,-2 -7,-5 -9,-10 -2,-4 -3,-10 -3,-15 0,-10 2,-17 7,-22 5,-5 11,-8 19,-8 8,0 14,3 19,8 5,5 7,13 7,22zm-43 0c0,7 1,12 4,16 3,4 7,6 13,6 6,0 10,-2 13,-6 3,-4 4,-9 4,-16 0,-8 -1,-13 -4,-17 -3,-4 -7,-5 -13,-5 -6,0 -10,1 -13,5 -3,4 -4,9 -4,17zm90 20l-1 0c-4,6 -10,9 -18,9 -7,0 -13,-3 -17,-8 -4,-5 -6,-12 -6,-21 0,-10 2,-17 6,-22 4,-5 10,-8 17,-8 8,0 14,3 18,9l1 0 -1 -4 0 -4 0 -23 9 0 0 80 -7 0 -1 -8zm-17 2c5,0 10,-2 12,-5 3,-3 4,-8 4,-15l0 -2c0,-8 -1,-14 -4,-17 -2,-4 -7,-6 -13,-6 -5,0 -8,2 -11,6 -3,4 -4,10 -4,17 0,7 1,12 4,16 3,4 6,6 12,6zm62 7c-3,0 -7,-1 -10,-2 -3,-2 -5,-4 -7,-6l-1 0c0,3 1,6 1,9l0 23 -9 0 0 -82 7 0 1 8 1 0c2,-3 4,-5 7,-7 3,-1 7,-2 10,-2 8,0 14,3 18,8 4,5 6,12 6,22 0,9 -2,16 -6,21 -5,5 -10,8 -18,8zm-1 -51c-6,0 -10,1 -12,4 -3,4 -4,9 -4,16l0 2c0,7 1,13 4,17 2,3 6,5 12,5 5,0 9,-2 12,-6 3,-4 4,-10 4,-17 0,-7 -1,-12 -4,-16 -3,-4 -7,-5 -12,-5zm68 50l-2 -8 -1 0c-2,3 -5,6 -8,7 -3,1 -6,2 -10,2 -6,0 -10,-2 -14,-4 -3,-3 -4,-7 -4,-13 0,-11 9,-17 27,-18l10 0 0 -4c0,-4 -1,-7 -3,-9 -2,-2 -5,-4 -9,-4 -5,0 -10,2 -16,5l-3 -7c3,-1 6,-2 9,-3 3,-1 7,-2 10,-2 7,0 12,2 15,5 3,3 5,8 5,14l0 39 -6 0zm-20 -6c6,0 10,-2 13,-5 3,-3 4,-7 4,-12l0 -5 -8 0c-7,1 -12,2 -15,4 -3,1 -4,4 -4,8 0,3 1,6 2,7 2,2 5,3 8,3zm75 -2l0 0c-4,6 -10,9 -18,9 -7,0 -13,-3 -17,-8 -4,-5 -6,-12 -6,-21 0,-10 2,-17 6,-22 4,-5 10,-8 17,-8 8,0 13,3 18,9l0 0 0 -4 0 -4 0 -23 8 0 0 80 -7 0 -1 -8zm-17 2c6,0 10,-2 13,-5 2,-3 4,-8 4,-15l0 -2c0,-8 -2,-14 -4,-17 -3,-4 -7,-6 -13,-6 -5,0 -9,2 -12,6 -2,4 -4,10 -4,17 0,7 2,12 4,16 3,4 7,6 12,6zm45 -51l0 37c0,5 1,8 3,10 2,3 5,4 10,4 5,0 10,-2 13,-5 2,-3 4,-9 4,-16l0 -30 8 0 0 57 -7 0 -1 -8 -1 0c-1,3 -4,5 -7,7 -3,1 -7,2 -11,2 -6,0 -12,-2 -15,-5 -3,-3 -5,-9 -5,-16l0 -37 9 0zm-1192 147c0,8 -2,14 -7,18 -6,4 -13,6 -23,6l-9 0 0 30 -8 0 0 -76 19 0c19,0 28,8 28,22zm-39 16l8 0c8,0 14,-1 17,-3 4,-3 5,-7 5,-12 0,-5 -1,-9 -5,-12 -3,-2 -8,-3 -15,-3l-10 0 0 30z"/>
    <path class="fil1" d="M2683 1803c-9,0 -15,3 -20,8 -5,6 -7,13 -7,23 0,10 2,17 7,23 4,5 11,8 19,8 6,0 12,-1 18,-3l0 8c-5,2 -11,3 -19,3 -11,0 -20,-4 -26,-10 -6,-7 -9,-17 -9,-29 0,-8 2,-15 5,-21 3,-5 7,-10 12,-13 6,-3 12,-5 20,-5 8,0 14,2 20,4l-3 8c-6,-3 -12,-4 -17,-4zm-19 -30l6 0c3,3 7,6 11,10 4,-4 8,-8 11,-10l6 0 0 2 -3 3c-5,5 -8,9 -10,12l-8 0c-1,-1 -2,-3 -4,-5 -2,-2 -5,-6 -9,-10l0 -2zm79 99l-25 -67 -1 0c1,5 1,11 1,19l0 48 -8 0 0 -76 13 0 24 62 0 0 25 -62 13 0 0 76 -9 0 0 -49c0,-6 0,-12 1,-18l-1 0 -26 67 -7 0zm200 -54c0,8 -2,14 -8,18 -5,4 -12,6 -22,6l-9 0 0 30 -9 0 0 -76 20 0c19,0 28,8 28,22zm-39 16l8 0c8,0 13,-1 17,-3 3,-3 5,-7 5,-12 0,-5 -2,-9 -5,-12 -3,-2 -8,-3 -15,-3l-10 0 0 30zm73 -20c2,0 4,0 6,1l-1 8c-2,-1 -4,-1 -6,-1 -5,0 -9,2 -12,5 -3,4 -5,9 -5,14l0 31 -8 0 0 -57 7 0 1 11 0 0c2,-4 5,-7 8,-9 3,-2 6,-3 10,-3zm57 29c0,9 -3,17 -7,22 -5,5 -11,8 -20,8 -5,0 -9,-2 -13,-4 -4,-2 -7,-6 -9,-10 -2,-5 -3,-10 -3,-16 0,-9 2,-16 7,-21 4,-5 11,-8 19,-8 8,0 14,3 19,8 4,5 7,12 7,21zm-43 0c0,7 1,13 4,17 3,4 7,5 13,5 5,0 10,-1 12,-5 3,-4 5,-9 5,-17 0,-7 -2,-12 -5,-16 -2,-4 -7,-6 -12,-6 -6,0 -10,2 -13,6 -3,3 -4,9 -4,16zm61 29l-21 -57 9 0 12 34c3,7 4,12 5,15l0 0c1,-2 2,-6 4,-11 2,-6 6,-19 13,-38l10 0 -22 57 -10 0zm82 -29c0,9 -2,17 -6,22 -5,5 -12,8 -20,8 -5,0 -9,-2 -13,-4 -4,-2 -7,-6 -9,-10 -2,-5 -3,-10 -3,-16 0,-9 2,-16 6,-21 5,-5 11,-8 20,-8 8,0 14,3 18,8 5,5 7,12 7,21zm-43 0c0,7 2,13 5,17 3,4 7,5 13,5 5,0 9,-1 12,-5 3,-4 5,-9 5,-17 0,-7 -2,-12 -5,-16 -3,-4 -7,-6 -13,-6 -5,0 -9,2 -12,6 -3,3 -5,9 -5,16zm87 29l-41 0 0 -6 31 -44 -29 0 0 -7 38 0 0 7 -30 43 31 0 0 7zm60 -69c-8,0 -15,3 -19,8 -5,6 -8,13 -8,23 0,10 3,17 7,23 5,5 12,8 20,8 5,0 11,-1 18,-3l0 8c-5,2 -12,3 -19,3 -11,0 -20,-4 -26,-10 -6,-7 -9,-17 -9,-29 0,-8 1,-15 4,-21 3,-5 7,-10 13,-13 5,-3 12,-5 19,-5 8,0 15,2 21,4l-4 8c-5,-3 -11,-4 -17,-4zm-19 -30l6 0c4,3 8,6 12,10 4,-4 8,-8 11,-10l6 0 0 2 -3 3c-5,5 -9,9 -10,12l-9 0c0,-1 -2,-3 -3,-5 -2,-2 -5,-6 -10,-10l0 -2zm69 100c-8,0 -15,-3 -20,-8 -4,-5 -7,-12 -7,-21 0,-9 2,-17 7,-22 4,-5 10,-8 18,-8 7,0 13,2 17,7 4,5 6,11 6,18l0 6 -39 0c0,6 2,12 5,15 3,3 8,5 14,5 6,0 12,-1 18,-4l0 8c-3,1 -6,2 -9,3 -3,0 -6,1 -10,1zm-2 -52c-5,0 -8,2 -11,5 -3,3 -4,7 -5,12l30 0c0,-6 -1,-10 -4,-13 -2,-2 -6,-4 -10,-4zm57 -7c2,0 4,0 6,1l-1 8c-2,-1 -4,-1 -6,-1 -5,0 -9,2 -12,5 -3,4 -5,9 -5,14l0 31 -8 0 0 -57 7 0 1 11 0 0c2,-4 5,-7 8,-9 3,-2 6,-3 10,-3zm22 58l-21 -57 9 0 12 34c3,7 5,12 5,15l0 0c1,-2 2,-6 4,-11 2,-6 7,-19 14,-38l9 0 -22 57 -10 0zm58 1c-9,0 -15,-3 -20,-8 -5,-5 -7,-12 -7,-21 0,-9 2,-17 7,-22 4,-5 10,-8 18,-8 7,0 12,2 16,7 5,5 7,11 7,18l0 6 -39 0c0,6 2,12 5,15 3,3 7,5 13,5 6,0 12,-1 18,-4l0 8c-3,1 -6,2 -8,3 -3,0 -6,1 -10,1zm-2 -52c-5,0 -9,2 -11,5 -3,3 -5,7 -5,12l29 0c0,-6 -1,-10 -3,-13 -3,-2 -6,-4 -10,-4zm69 51l0 -37c0,-5 -1,-8 -3,-10 -2,-3 -6,-4 -10,-4 -6,0 -10,2 -13,5 -3,3 -4,9 -4,16l0 30 -9 0 0 -57 7 0 2 8 0 0c2,-3 4,-5 7,-7 4,-1 7,-2 11,-2 7,0 12,2 15,5 4,3 6,8 6,16l0 37 -9 0zm10 -57l9 0 13 32c3,8 4,13 5,16l0 0c1,-2 2,-5 3,-9 2,-4 6,-17 14,-39l9 0 -24 64c-2,7 -5,11 -8,14 -4,3 -8,4 -12,4 -3,0 -5,0 -8,-1l0 -7c2,1 4,1 6,1 6,0 10,-4 13,-10l3 -8 -23 -57zm21 -9c2,-2 4,-4 6,-7 2,-3 3,-6 4,-8l11 0 0 1c-2,2 -4,5 -7,8 -3,3 -6,6 -8,8l-6 0 0 -2zm127 66l0 -37c0,-5 -1,-8 -3,-10 -2,-3 -5,-4 -9,-4 -5,0 -9,2 -12,5 -2,3 -3,8 -3,14l0 32 -9 0 0 -37c0,-5 -1,-8 -3,-10 -2,-3 -5,-4 -9,-4 -5,0 -9,2 -12,5 -2,3 -3,9 -3,16l0 30 -9 0 0 -57 7 0 2 8 0 0c2,-3 4,-5 7,-7 3,-1 6,-2 10,-2 8,0 14,3 17,10l0 0c2,-3 4,-6 8,-7 3,-2 7,-3 11,-3 6,0 11,2 14,5 3,3 5,8 5,16l0 37 -9 0zm28 0l-9 0 0 -81 9 0 0 81zm2 -57l10 0 12 32c3,8 4,13 5,16l0 0c1,-2 2,-5 3,-9 2,-4 6,-17 14,-39l9 0 -24 64c-2,7 -5,11 -8,14 -4,3 -8,4 -12,4 -3,0 -5,0 -8,-1l0 -7c2,1 4,1 6,1 6,0 10,-4 13,-10l3 -8 -23 -57zm21 -9c2,-2 4,-4 6,-7 2,-3 3,-6 4,-8l11 0 0 1c-2,2 -4,5 -7,8 -3,3 -6,6 -8,8l-6 0 0 -2zm73 66l0 -37c0,-5 -1,-8 -3,-10 -2,-3 -5,-4 -10,-4 -6,0 -10,2 -13,5 -2,3 -4,9 -4,16l0 30 -8 0 0 -57 7 0 1 8 0 0c2,-3 5,-5 8,-7 3,-1 6,-2 10,-2 7,0 12,2 16,5 3,3 5,8 5,16l0 37 -9 0zm-1131 90c0,7 -2,13 -7,17 -6,5 -13,7 -23,7l-9 0 0 29 -8 0 0 -75 19 0c19,0 28,7 28,22zm-39 16l8 0c8,0 14,-1 17,-4 4,-2 5,-6 5,-12 0,-5 -1,-8 -5,-11 -3,-2 -8,-3 -15,-3l-10 0 0 30zm48 -38l22 0c10,0 17,1 21,4 5,3 7,8 7,15 0,4 -1,8 -4,11 -2,3 -6,4 -11,5l0 1c12,2 17,8 17,18 0,7 -2,12 -6,16 -5,3 -11,5 -19,5l-27 0 0 -75zm9 32l14 0c7,0 11,-1 14,-3 3,-2 4,-5 4,-10 0,-4 -2,-7 -5,-9 -3,-2 -8,-2 -14,-2l-13 0 0 24zm0 8l0 28 16 0c6,0 10,-1 13,-4 4,-2 5,-6 5,-11 0,-4 -2,-8 -5,-10 -3,-2 -8,-3 -14,-3l-15 0zm95 15c0,7 -2,12 -7,16 -5,3 -11,5 -19,5 -9,0 -16,-1 -21,-3l0 -9c3,2 6,3 10,4 4,0 7,1 11,1 6,0 10,-1 13,-4 3,-2 4,-5 4,-9 0,-3 0,-5 -1,-6 -1,-2 -3,-4 -5,-5 -3,-1 -7,-3 -12,-5 -7,-2 -12,-5 -15,-9 -3,-3 -4,-8 -4,-13 0,-6 2,-11 6,-14 5,-3 11,-5 18,-5 7,0 14,1 20,4l-2 8c-7,-3 -13,-4 -18,-4 -5,0 -9,1 -11,3 -3,2 -4,4 -4,8 0,3 0,5 1,6 1,2 3,4 5,5 2,1 6,3 11,5 7,2 13,5 16,9 3,3 4,7 4,12zm189 -33c0,7 -2,13 -8,17 -5,5 -12,7 -22,7l-9 0 0 29 -9 0 0 -75 20 0c19,0 28,7 28,22zm-39 16l8 0c8,0 13,-1 17,-4 3,-2 5,-6 5,-12 0,-5 -2,-8 -5,-11 -3,-2 -8,-3 -15,-3l-10 0 0 30zm73 -20c2,0 4,0 6,0l-1 8c-2,0 -4,0 -6,0 -5,0 -9,1 -12,5 -3,4 -5,8 -5,14l0 30 -8 0 0 -56 7 0 1 10 0 0c2,-3 5,-6 8,-8 3,-2 6,-3 10,-3zm57 29c0,9 -3,16 -7,22 -5,5 -11,7 -20,7 -5,0 -9,-1 -13,-3 -4,-3 -7,-6 -9,-10 -2,-5 -3,-10 -3,-16 0,-9 2,-16 7,-22 4,-5 11,-7 19,-7 8,0 14,2 19,8 4,5 7,12 7,21zm-43 0c0,7 1,13 4,16 3,4 7,6 13,6 5,0 10,-2 12,-5 3,-4 5,-10 5,-17 0,-7 -2,-13 -5,-16 -2,-4 -7,-6 -12,-6 -6,0 -10,2 -13,6 -3,3 -4,9 -4,16zm61 28l-21 -56 9 0 12 33c3,8 4,13 5,16l0 0c1,-2 2,-6 4,-12 2,-5 6,-18 13,-37l10 0 -22 56 -10 0zm82 -28c0,9 -2,16 -6,22 -5,5 -12,7 -20,7 -5,0 -9,-1 -13,-3 -4,-3 -7,-6 -9,-10 -2,-5 -3,-10 -3,-16 0,-9 2,-16 6,-22 5,-5 11,-7 20,-7 8,0 14,2 18,8 5,5 7,12 7,21zm-43 0c0,7 2,13 5,16 3,4 7,6 13,6 5,0 9,-2 12,-5 3,-4 5,-10 5,-17 0,-7 -2,-13 -5,-16 -3,-4 -7,-6 -13,-6 -5,0 -9,2 -12,6 -3,3 -5,9 -5,16zm87 28l-41 0 0 -6 31 -44 -29 0 0 -6 38 0 0 6 -30 44 31 0 0 6zm28 -75l21 0c10,0 17,1 22,4 4,3 7,8 7,15 0,4 -2,8 -4,11 -3,3 -6,4 -11,5l0 1c11,2 17,8 17,18 0,7 -2,12 -7,16 -4,3 -11,5 -19,5l-26 0 0 -75zm9 32l14 0c6,0 11,-1 13,-3 3,-2 5,-5 5,-10 0,-4 -2,-7 -5,-9 -3,-2 -8,-2 -14,-2l-13 0 0 24zm0 8l0 28 15 0c7,0 11,-1 14,-4 3,-2 5,-6 5,-11 0,-4 -2,-8 -5,-10 -3,-2 -8,-3 -14,-3l-15 0zm77 -22c2,0 5,0 7,0l-1 8c-3,0 -5,0 -7,0 -4,0 -8,1 -11,5 -4,4 -5,8 -5,14l0 30 -9 0 0 -56 7 0 1 10 1 0c2,-3 4,-6 7,-8 3,-2 6,-3 10,-3zm49 57l0 -36c0,-5 -1,-8 -3,-11 -2,-2 -5,-3 -10,-3 -6,0 -10,2 -13,5 -3,3 -4,8 -4,16l0 29 -9 0 0 -56 7 0 2 8 0 0c2,-3 4,-5 8,-7 3,-1 6,-2 10,-2 7,0 12,1 15,5 4,3 6,8 6,15l0 37 -9 0zm68 -28c0,9 -2,16 -7,22 -4,5 -11,7 -19,7 -5,0 -10,-1 -14,-3 -3,-3 -6,-6 -9,-10 -2,-5 -3,-10 -3,-16 0,-9 3,-16 7,-22 5,-5 11,-7 19,-7 8,0 14,2 19,8 5,5 7,12 7,21zm-43 0c0,7 2,13 4,16 3,4 8,6 13,6 6,0 10,-2 13,-5 3,-4 4,-10 4,-17 0,-7 -1,-13 -4,-16 -3,-4 -7,-6 -13,-6 -6,0 -10,2 -13,6 -2,3 -4,9 -4,16zm47 4l0 -8 25 0 0 8 -25 0zm68 9c0,5 -2,9 -6,12 -4,3 -9,4 -17,4 -7,0 -13,-1 -17,-3l0 -8c3,1 6,2 9,3 3,1 6,1 9,1 4,0 8,0 10,-2 2,-1 4,-3 4,-6 0,-3 -1,-4 -3,-6 -2,-2 -6,-3 -11,-6 -6,-2 -9,-3 -12,-5 -2,-1 -4,-3 -5,-5 -1,-2 -1,-4 -1,-6 0,-5 2,-9 5,-11 4,-3 9,-4 16,-4 6,0 12,1 18,3l-3 7c-6,-2 -11,-3 -16,-3 -4,0 -7,1 -9,2 -2,1 -3,3 -3,5 0,2 0,3 1,4 1,1 2,2 4,3 2,1 5,2 10,4 6,3 11,5 13,8 3,2 4,5 4,9zm31 16c-9,0 -15,-2 -20,-7 -5,-5 -7,-12 -7,-21 0,-10 2,-17 6,-22 5,-6 11,-8 18,-8 8,0 13,2 17,7 4,4 6,11 6,18l0 6 -38 0c0,6 1,11 5,15 3,3 7,5 13,5 6,0 12,-1 18,-4l0 8c-3,1 -6,2 -9,2 -2,1 -5,1 -9,1zm-3 -51c-4,0 -8,1 -10,4 -3,3 -5,7 -5,13l29 0c0,-6 -1,-10 -3,-13 -3,-3 -6,-4 -11,-4zm41 50l-21 -56 9 0 12 33c3,8 5,13 5,16l1 0c0,-2 1,-6 3,-12 2,-5 7,-18 14,-37l9 0 -22 56 -10 0zm58 1c-8,0 -15,-2 -20,-7 -5,-5 -7,-12 -7,-21 0,-10 2,-17 7,-22 4,-6 10,-8 18,-8 7,0 12,2 17,7 4,4 6,11 6,18l0 6 -39 0c0,6 2,11 5,15 3,3 8,5 13,5 6,0 12,-1 18,-4l0 8c-3,1 -6,2 -8,2 -3,1 -6,1 -10,1zm-2 -51c-5,0 -8,1 -11,4 -3,3 -4,7 -5,13l30 0c0,-6 -2,-10 -4,-13 -2,-3 -6,-4 -10,-4zm56 -7c3,0 5,0 7,0l-1 8c-3,0 -5,0 -6,0 -5,0 -9,1 -12,5 -3,4 -5,8 -5,14l0 30 -9 0 0 -56 8 0 0 10 1 0c2,-3 5,-6 7,-8 3,-2 7,-3 10,-3zm-1021 148c0,7 -2,13 -7,17 -6,4 -13,6 -23,6l-9 0 0 30 -8 0 0 -75 19 0c19,0 28,7 28,22zm-39 16l8 0c8,0 14,-1 17,-4 4,-2 5,-6 5,-12 0,-5 -1,-9 -5,-11 -3,-3 -8,-4 -15,-4l-10 0 0 31zm91 17c0,7 -3,12 -7,16 -5,3 -12,5 -20,5 -9,0 -16,-1 -21,-3l0 -9c3,1 7,2 10,3 4,1 8,1 11,1 6,0 11,-1 13,-3 3,-2 5,-5 5,-9 0,-3 -1,-5 -2,-7 -1,-1 -2,-3 -5,-4 -2,-2 -6,-3 -11,-5 -7,-3 -12,-5 -15,-9 -3,-3 -5,-8 -5,-13 0,-6 2,-11 7,-14 4,-4 10,-5 17,-5 8,0 15,1 21,4l-3 7c-6,-2 -12,-4 -18,-4 -5,0 -8,1 -11,3 -3,2 -4,5 -4,9 0,2 1,4 2,6 1,2 2,3 4,5 3,1 6,3 11,4 8,3 13,6 16,9 3,4 5,8 5,13zm-41 -78l6 0c4,2 8,6 11,9 5,-4 9,-7 12,-9l6 0 0 1 -3 4c-5,5 -9,9 -10,12l-9 0c-1,-2 -2,-4 -4,-6 -1,-2 -4,-5 -9,-10l0 -1zm291 45c0,7 -2,13 -8,17 -5,4 -12,6 -22,6l-9 0 0 30 -9 0 0 -75 20 0c19,0 28,7 28,22zm-39 16l8 0c8,0 13,-1 17,-4 3,-2 5,-6 5,-12 0,-5 -2,-9 -5,-11 -3,-3 -8,-4 -15,-4l-10 0 0 31zm73 -21c2,0 4,1 6,1l-1 8c-2,0 -4,-1 -6,-1 -5,0 -9,2 -12,6 -3,4 -5,8 -5,14l0 30 -8 0 0 -56 7 0 1 10 0 0c2,-4 5,-7 8,-9 3,-2 6,-3 10,-3zm57 30c0,9 -3,16 -7,21 -5,5 -11,8 -20,8 -5,0 -9,-1 -13,-3 -4,-3 -7,-6 -9,-11 -2,-4 -3,-9 -3,-15 0,-9 2,-17 7,-22 4,-5 11,-8 19,-8 8,0 14,3 19,8 4,6 7,13 7,22zm-43 0c0,7 1,12 4,16 3,4 7,6 13,6 5,0 10,-2 12,-6 3,-4 5,-9 5,-16 0,-7 -2,-13 -5,-17 -2,-3 -7,-5 -12,-5 -6,0 -10,2 -13,5 -3,4 -4,9 -4,17zm61 28l-21 -56 9 0 12 33c3,8 4,13 5,15l0 0c1,-2 2,-5 4,-11 2,-6 6,-18 13,-37l10 0 -22 56 -10 0zm82 -28c0,9 -2,16 -6,21 -5,5 -12,8 -20,8 -5,0 -9,-1 -13,-3 -4,-3 -7,-6 -9,-11 -2,-4 -3,-9 -3,-15 0,-9 2,-17 6,-22 5,-5 11,-8 20,-8 8,0 14,3 18,8 5,6 7,13 7,22zm-43 0c0,7 2,12 5,16 3,4 7,6 13,6 5,0 9,-2 12,-6 3,-4 5,-9 5,-16 0,-7 -2,-13 -5,-17 -3,-3 -7,-5 -13,-5 -5,0 -9,2 -12,5 -3,4 -5,9 -5,17zm87 28l-41 0 0 -6 31 -44 -29 0 0 -6 38 0 0 6 -30 43 31 0 0 7z"/>
    <path class="fil1" d="M3248 2139c0,7 -2,12 -7,16 -5,3 -11,5 -19,5 -9,0 -16,-1 -21,-3l0 -9c3,1 7,2 10,3 4,1 7,1 11,1 6,0 10,-1 13,-3 3,-2 5,-5 5,-9 0,-3 -1,-5 -2,-7 -1,-1 -3,-3 -5,-4 -3,-2 -6,-3 -11,-5 -7,-3 -12,-5 -15,-9 -3,-3 -5,-8 -5,-13 0,-6 2,-11 7,-14 4,-4 10,-5 17,-5 7,0 14,1 21,4l-3 7c-6,-2 -12,-4 -18,-4 -5,0 -9,1 -11,3 -3,2 -4,5 -4,9 0,2 0,4 1,6 1,2 3,3 5,5 3,1 6,3 11,4 8,3 13,6 16,9 3,4 4,8 4,13zm-40 -78l6 0c4,2 8,6 11,9 5,-4 8,-7 12,-9l6 0 0 1 -4 4c-5,5 -8,9 -10,12l-8 0c-1,-2 -2,-4 -4,-6 -2,-2 -5,-5 -9,-10l0 -1zm74 99c-4,0 -7,-1 -10,-2 -3,-1 -6,-3 -8,-6l0 0c0,3 0,6 0,9l0 23 -8 0 0 -81 7 0 1 7 0 0c2,-3 5,-5 8,-6 3,-2 6,-3 10,-3 8,0 13,3 17,8 4,5 6,12 6,22 0,9 -2,16 -6,21 -4,6 -10,8 -17,8zm-1 -51c-6,0 -10,1 -13,5 -2,3 -4,8 -4,15l0 2c0,8 2,13 4,17 3,3 7,5 13,5 5,0 9,-2 11,-6 3,-4 5,-9 5,-16 0,-7 -2,-13 -5,-17 -2,-3 -6,-5 -11,-5zm41 50l-8 0 0 -56 8 0 0 56zm-9 -72c0,-2 0,-3 1,-4 1,-1 2,-1 4,-1 1,0 2,0 3,1 1,1 2,2 2,4 0,2 -1,4 -2,5 -1,0 -2,1 -3,1 -2,0 -3,-1 -4,-1 -1,-1 -1,-3 -1,-5zm39 66c1,0 3,0 4,0 1,-1 3,-1 3,-1l0 7c-1,0 -2,0 -4,1 -2,0 -3,0 -5,0 -11,0 -16,-6 -16,-17l0 -34 -8 0 0 -4 8 -3 4 -13 5 0 0 14 16 0 0 6 -16 0 0 33c0,4 0,6 2,8 2,2 4,3 7,3zm47 6l-2 -8 -1 0c-2,4 -5,6 -8,7 -3,1 -6,2 -10,2 -6,0 -10,-1 -14,-4 -3,-3 -4,-7 -4,-13 0,-11 9,-17 27,-18l10 0 0 -3c0,-5 -1,-8 -3,-10 -2,-2 -5,-3 -9,-3 -5,0 -11,1 -16,4l-3 -7c3,-1 6,-2 9,-3 3,-1 7,-1 10,-1 7,0 12,1 15,4 3,3 5,8 5,14l0 39 -6 0zm-20 -6c6,0 10,-1 13,-4 3,-3 4,-7 4,-13l0 -5 -8 1c-7,0 -12,1 -15,3 -3,2 -4,5 -4,9 0,3 0,5 2,7 2,1 5,2 8,2zm-2 -59c2,-2 4,-5 6,-8 1,-3 3,-6 4,-8l10 0 0 1c-1,2 -3,5 -6,8 -3,4 -6,6 -8,8l-6 0 0 -1zm47 65l-8 0 0 -80 8 0 0 80zm20 -29c1,-2 4,-5 7,-8l18 -19 10 0 -23 24 25 32 -11 0 -20 -27 -6 6 0 21 -8 0 0 -80 8 0 0 42c0,2 0,5 0,9l0 0zm75 29l-2 -8 0 0c-3,4 -6,6 -9,7 -3,1 -6,2 -10,2 -6,0 -10,-1 -13,-4 -4,-3 -5,-7 -5,-13 0,-11 9,-17 27,-18l10 0 0 -3c0,-5 -1,-8 -3,-10 -2,-2 -5,-3 -9,-3 -5,0 -10,1 -16,4l-3 -7c3,-1 6,-2 9,-3 4,-1 7,-1 10,-1 7,0 12,1 15,4 3,3 5,8 5,14l0 39 -6 0zm-20 -6c6,0 10,-1 13,-4 3,-3 5,-7 5,-13l0 -5 -9 1c-7,0 -12,1 -15,3 -3,2 -4,5 -4,9 0,3 1,5 3,7 1,1 4,2 7,2zm-858 96c0,8 -2,14 -7,18 -6,4 -13,6 -23,6l-9 0 0 30 -8 0 0 -76 19 0c19,0 28,8 28,22zm-39 17l8 0c8,0 14,-2 17,-4 4,-3 5,-7 5,-12 0,-5 -1,-9 -5,-11 -3,-3 -8,-4 -15,-4l-10 0 0 31zm91 17c0,6 -3,12 -7,15 -5,4 -12,6 -20,6 -9,0 -16,-1 -21,-4l0 -8c3,1 7,2 10,3 4,1 8,1 11,1 6,0 11,-1 13,-3 3,-2 5,-6 5,-9 0,-3 -1,-5 -2,-7 -1,-2 -2,-3 -5,-4 -2,-2 -6,-3 -11,-5 -7,-3 -12,-6 -15,-9 -3,-4 -5,-8 -5,-14 0,-5 2,-10 7,-14 4,-3 10,-5 17,-5 8,0 15,2 21,4l-3 8c-6,-3 -12,-4 -18,-4 -5,0 -8,1 -11,3 -3,2 -4,5 -4,8 0,3 1,5 2,7 1,2 2,3 4,4 3,2 6,3 11,5 8,3 13,6 16,9 3,3 5,8 5,13zm8 -56l22 0c10,0 17,2 21,5 5,3 7,8 7,14 0,5 -1,8 -4,11 -2,3 -6,5 -11,6l0 0c12,2 18,8 18,18 0,7 -3,12 -7,16 -5,4 -11,6 -19,6l-27 0 0 -76zm9 33l14 0c7,0 11,-1 14,-3 3,-2 4,-5 4,-10 0,-4 -2,-7 -5,-9 -3,-2 -7,-3 -14,-3l-13 0 0 25zm0 7l0 28 16 0c6,0 10,-1 14,-3 3,-3 4,-6 4,-11 0,-5 -1,-8 -5,-11 -3,-2 -8,-3 -14,-3l-15 0zm233 -18c0,8 -2,14 -8,18 -5,4 -12,6 -22,6l-9 0 0 30 -9 0 0 -76 20 0c19,0 28,8 28,22zm-39 17l8 0c8,0 13,-2 17,-4 3,-3 5,-7 5,-12 0,-5 -2,-9 -5,-11 -3,-3 -8,-4 -15,-4l-10 0 0 31zm73 -21c2,0 4,0 6,1l-1 8c-2,-1 -4,-1 -6,-1 -5,0 -9,2 -12,6 -3,3 -5,8 -5,13l0 31 -8 0 0 -57 7 0 1 11 0 0c2,-4 5,-7 8,-9 3,-2 6,-3 10,-3zm57 29c0,10 -3,17 -7,22 -5,5 -11,8 -20,8 -5,0 -9,-1 -13,-4 -4,-2 -7,-6 -9,-10 -2,-4 -3,-10 -3,-16 0,-9 2,-16 7,-21 4,-5 11,-8 19,-8 8,0 14,3 19,8 4,5 7,12 7,21zm-43 0c0,8 1,13 4,17 3,4 7,6 13,6 5,0 10,-2 12,-6 3,-4 5,-9 5,-17 0,-7 -2,-12 -5,-16 -2,-4 -7,-5 -12,-5 -6,0 -10,1 -13,5 -3,4 -4,9 -4,16zm61 29l-21 -57 9 0 12 34c3,8 4,13 5,15l0 0c1,-2 2,-6 4,-11 2,-6 6,-18 13,-38l10 0 -22 57 -10 0zm82 -29c0,10 -2,17 -6,22 -5,5 -12,8 -20,8 -5,0 -9,-1 -13,-4 -4,-2 -7,-6 -9,-10 -2,-4 -3,-10 -3,-16 0,-9 2,-16 6,-21 5,-5 11,-8 20,-8 8,0 14,3 18,8 5,5 7,12 7,21zm-43 0c0,8 2,13 5,17 3,4 7,6 13,6 5,0 9,-2 12,-6 3,-4 5,-9 5,-17 0,-7 -2,-12 -5,-16 -3,-4 -7,-5 -13,-5 -5,0 -9,1 -12,5 -3,4 -5,9 -5,16zm87 29l-41 0 0 -6 31 -44 -29 0 0 -7 38 0 0 7 -30 43 31 0 0 7zm70 -20c0,6 -2,12 -7,15 -5,4 -11,6 -19,6 -9,0 -16,-1 -21,-4l0 -8c3,1 7,2 10,3 4,1 7,1 11,1 6,0 10,-1 13,-3 3,-2 5,-6 5,-9 0,-3 -1,-5 -2,-7 -1,-2 -3,-3 -5,-4 -3,-2 -6,-3 -11,-5 -7,-3 -12,-6 -15,-9 -3,-4 -5,-8 -5,-14 0,-5 2,-10 7,-14 4,-3 10,-5 17,-5 7,0 14,2 21,4l-3 8c-6,-3 -12,-4 -18,-4 -5,0 -9,1 -11,3 -3,2 -4,5 -4,8 0,3 0,5 1,7 1,2 3,3 5,4 3,2 6,3 11,5 8,3 13,6 16,9 3,3 4,8 4,13zm26 14c2,0 3,0 4,-1 2,0 3,0 4,0l0 6c-1,1 -3,1 -4,1 -2,1 -4,1 -5,1 -11,0 -17,-6 -17,-17l0 -34 -8 0 0 -4 8 -4 4 -12 5 0 0 13 16 0 0 7 -16 0 0 33c0,4 1,6 2,8 2,2 4,3 7,3zm47 6l-2 -8 0 0c-3,3 -6,6 -9,7 -2,1 -6,2 -10,2 -6,0 -10,-2 -13,-5 -3,-2 -5,-7 -5,-12 0,-11 9,-17 27,-18l10 0 0 -4c0,-4 -1,-7 -3,-9 -2,-3 -5,-4 -9,-4 -5,0 -10,2 -16,5l-3 -7c3,-1 6,-3 9,-3 4,-1 7,-2 10,-2 7,0 12,2 15,5 4,3 5,8 5,14l0 39 -6 0zm-19 -6c5,0 9,-2 12,-5 3,-3 5,-7 5,-12l0 -5 -9 0c-7,1 -12,2 -15,4 -3,1 -4,4 -4,8 0,3 1,6 3,7 2,2 4,3 8,3zm62 -52c2,0 4,0 6,1l-1 8c-2,-1 -4,-1 -6,-1 -4,0 -8,2 -12,6 -3,3 -4,8 -4,13l0 31 -9 0 0 -57 7 0 1 11 0 0c3,-4 5,-7 8,-9 3,-2 6,-3 10,-3zm32 59c-8,0 -15,-3 -20,-8 -5,-5 -7,-12 -7,-21 0,-9 2,-16 7,-22 4,-5 10,-8 18,-8 7,0 12,3 17,7 4,5 6,11 6,19l0 5 -39 0c0,7 2,12 5,15 3,4 7,5 13,5 6,0 12,-1 18,-4l0 8c-3,1 -6,2 -8,3 -3,1 -6,1 -10,1zm-2 -52c-5,0 -9,2 -11,5 -3,3 -4,7 -5,12l30 0c0,-5 -2,-9 -4,-12 -2,-3 -6,-5 -10,-5zm-7 -14c2,-3 4,-5 6,-8 2,-3 3,-6 4,-8l11 0 0 1c-2,2 -4,5 -7,8 -3,3 -6,6 -8,8l-6 0 0 -1zm59 -11l22 0c10,0 17,2 21,5 5,3 7,8 7,14 0,5 -1,8 -4,11 -2,3 -6,5 -11,6l0 0c12,2 18,8 18,18 0,7 -3,12 -7,16 -5,4 -11,6 -19,6l-27 0 0 -76zm9 33l14 0c7,0 11,-1 14,-3 3,-2 4,-5 4,-10 0,-4 -2,-7 -5,-9 -3,-2 -7,-3 -14,-3l-13 0 0 25zm0 7l0 28 16 0c6,0 10,-1 14,-3 3,-3 4,-6 4,-11 0,-5 -1,-8 -5,-11 -3,-2 -8,-3 -14,-3l-15 0zm77 -22c3,0 5,0 7,1l-1 8c-2,-1 -5,-1 -6,-1 -5,0 -9,2 -12,6 -3,3 -5,8 -5,13l0 31 -8 0 0 -57 7 0 1 11 0 0c2,-4 5,-7 8,-9 3,-2 6,-3 9,-3zm49 58l0 -37c0,-4 -1,-8 -3,-10 -2,-2 -5,-3 -10,-3 -5,0 -10,1 -13,4 -2,3 -4,9 -4,16l0 30 -8 0 0 -57 7 0 1 8 1 0c1,-3 4,-5 7,-6 3,-2 7,-3 10,-3 7,0 12,2 16,5 3,3 5,9 5,16l0 37 -9 0zm68 -29c0,10 -2,17 -6,22 -5,5 -12,8 -20,8 -5,0 -9,-1 -13,-4 -4,-2 -7,-6 -9,-10 -2,-4 -3,-10 -3,-16 0,-9 2,-16 6,-21 5,-5 11,-8 20,-8 8,0 14,3 18,8 5,5 7,12 7,21zm-43 0c0,8 2,13 5,17 3,4 7,6 12,6 6,0 10,-2 13,-6 3,-4 5,-9 5,-17 0,-7 -2,-12 -5,-16 -3,-4 -7,-5 -13,-5 -5,0 -9,1 -12,5 -3,4 -5,9 -5,16z"/>
   </g>
  </g>
  <path class="fil1" d="M1644 705c4,0 8,1 11,1l-3 30c-2,-1 -5,-1 -9,-1 -10,0 -18,2 -23,8 -6,5 -9,12 -9,21l0 59 -31 0 0 -116 23 0 5 20 2 0c3,-7 8,-12 14,-16 6,-4 13,-6 20,-6zm52 60c0,11 2,20 6,26 4,6 10,9 18,9 9,0 15,-3 18,-9 4,-6 6,-15 6,-26 0,-11 -2,-20 -6,-26 -3,-5 -10,-8 -18,-8 -8,0 -14,3 -18,8 -4,6 -6,14 -6,26zm80 0c0,19 -5,33 -15,44 -10,11 -23,16 -41,16 -11,0 -21,-3 -29,-7 -9,-5 -15,-12 -20,-21 -4,-9 -7,-20 -7,-32 0,-19 5,-34 15,-44 10,-10 24,-16 41,-16 12,0 21,3 30,8 8,4 15,11 19,20 5,9 7,20 7,32zm56 -5l14 -17 32 -36 36 0 -46 50 48 66 -36 0 -33 -47 -14 11 0 36 -31 0 0 -161 31 0 0 72 -1 26 0 0zm253 63l-105 0 0 -22 38 -39c11,-11 18,-19 22,-24 3,-4 5,-8 7,-12 1,-4 2,-7 2,-12 0,-6 -1,-10 -5,-13 -3,-3 -8,-4 -13,-4 -6,0 -12,1 -17,4 -6,2 -11,6 -17,11l-18 -21c8,-6 14,-10 19,-13 5,-3 10,-5 16,-6 6,-1 12,-2 19,-2 10,0 18,2 25,5 7,4 13,8 17,15 4,6 6,13 6,21 0,7 -1,13 -4,19 -2,6 -6,13 -11,19 -5,6 -14,15 -27,27l-20 18 0 2 66 0 0 27zm120 -76c0,27 -5,46 -13,59 -9,13 -22,19 -40,19 -17,0 -30,-7 -39,-20 -9,-13 -14,-32 -14,-58 0,-26 5,-46 13,-58 9,-13 22,-19 40,-19 17,0 31,6 39,20 9,13 14,32 14,57zm-74 0c0,19 2,32 5,40 3,8 8,12 16,12 7,0 13,-4 16,-12 3,-8 5,-21 5,-40 0,-18 -2,-31 -5,-39 -3,-8 -9,-13 -16,-13 -8,0 -13,5 -16,13 -3,8 -5,21 -5,39zm168 76l-31 0 0 -87 0 -15 0 -15c-5,5 -9,8 -11,10l-17 14 -15 -19 48 -39 26 0 0 151zm151 -31l-18 0 0 31 -31 0 0 -31 -65 0 0 -23 66 -97 30 0 0 95 18 0 0 25zm-49 -25l0 -26c0,-4 0,-10 0,-18 1,-8 1,-13 1,-14l-1 0c-2,5 -5,11 -9,16l-28 42 37 0z"/>
  <path class="fil2" d="M344 337c0,23 -8,40 -25,53 -16,14 -39,20 -68,20 -26,0 -50,-5 -71,-15l0 -50c17,8 32,13 43,16 12,4 23,5 32,5 12,0 21,-2 27,-7 7,-4 10,-11 10,-20 0,-4 -2,-9 -4,-13 -3,-4 -7,-7 -12,-11 -6,-3 -17,-9 -33,-17 -15,-7 -27,-14 -35,-21 -7,-6 -13,-14 -18,-23 -5,-9 -7,-19 -7,-31 0,-22 8,-39 23,-52 15,-13 36,-19 62,-19 13,0 26,1 38,4 11,4 24,8 37,14l-17 41c-14,-6 -25,-9 -34,-12 -8,-2 -17,-3 -26,-3 -10,0 -17,3 -23,7 -5,5 -8,11 -8,19 0,4 1,8 3,12 3,3 6,7 11,10 5,3 16,9 34,18 23,11 39,22 48,33 9,12 13,25 13,42zm119 73c-59,0 -89,-33 -89,-98 0,-33 8,-58 24,-75 16,-17 40,-26 70,-26 22,0 42,4 60,13l-16 40c-8,-3 -16,-6 -23,-8 -7,-2 -14,-3 -21,-3 -27,0 -41,20 -41,58 0,38 14,56 41,56 10,0 19,-1 28,-4 8,-2 17,-6 26,-12l0 45c-9,5 -17,9 -26,11 -9,2 -20,3 -33,3zm280 -3l-52 0 0 -113c0,-27 -10,-41 -31,-41 -15,0 -25,5 -32,15 -6,10 -9,26 -9,48l0 91 -53 0 0 -268 53 0 0 55c0,4 -1,14 -2,30l-1 15 3 0c12,-19 30,-28 56,-28 22,0 39,6 51,18 12,12 17,30 17,52l0 126zm134 -159c-11,0 -20,4 -26,11 -6,7 -10,17 -11,30l74 0c-1,-13 -4,-23 -11,-30 -6,-7 -15,-11 -26,-11zm7 162c-31,0 -55,-8 -72,-26 -18,-17 -26,-41 -26,-72 0,-32 8,-57 24,-75 16,-17 38,-26 67,-26 27,0 48,8 63,23 15,16 23,37 23,64l0 26 -124 0c0,14 5,26 13,34 8,9 20,13 35,13 11,0 22,-1 33,-4 10,-2 21,-6 32,-11l0 40c-9,5 -19,8 -30,11 -10,2 -23,3 -38,3zm-37 -217l0 -4c19,-23 33,-40 40,-52l59 0 0 4c-6,6 -16,14 -31,26 -14,12 -25,21 -33,26l-35 0zm330 214l-52 0 0 -113c0,-13 -3,-24 -7,-31 -5,-7 -12,-10 -22,-10 -13,0 -23,5 -29,15 -6,9 -9,26 -9,48l0 91 -53 0 0 -193 40 0 7 25 3 0c5,-9 13,-16 23,-21 9,-5 21,-7 33,-7 29,0 48,9 59,28l4 0c5,-9 13,-16 23,-21 10,-5 21,-7 34,-7 22,0 38,6 49,17 11,11 17,29 17,53l0 126 -53 0 0 -113c0,-13 -2,-24 -7,-31 -4,-7 -11,-10 -21,-10 -13,0 -23,4 -29,14 -7,9 -10,23 -10,43l0 97zm296 0l-10 -27 -2 0c-9,12 -18,19 -27,24 -9,4 -21,6 -37,6 -18,0 -32,-5 -43,-16 -11,-10 -16,-25 -16,-45 0,-20 7,-35 21,-45 15,-10 36,-15 65,-16l33 -1 0 -9c0,-19 -10,-29 -30,-29 -15,0 -33,5 -54,14l-17 -35c22,-12 47,-17 73,-17 26,0 46,5 60,16 13,12 20,29 20,52l0 128 -36 0zm-16 -89l-20 0c-15,1 -27,3 -34,9 -7,5 -11,12 -11,23 0,14 8,22 25,22 12,0 22,-4 29,-11 8,-7 11,-16 11,-28l0 -15zm303 92c-22,0 -40,-8 -53,-25l-3 0c2,17 3,26 3,28l0 78 -52 0 0 -277 42 0 8 25 2 0c12,-19 30,-28 55,-28 22,0 40,9 53,26 13,18 19,42 19,73 0,21 -3,39 -9,54 -6,15 -15,26 -26,34 -11,8 -24,12 -39,12zm-15 -157c-13,0 -23,4 -29,12 -6,8 -9,21 -9,39l0 6c0,20 3,35 9,44 6,9 16,13 29,13 24,0 36,-19 36,-58 0,-18 -3,-33 -9,-42 -6,-9 -15,-14 -27,-14zm239 -42c8,0 13,0 18,1l-4 50c-4,-2 -9,-2 -15,-2 -17,0 -30,4 -39,13 -10,8 -14,20 -14,36l0 98 -53 0 0 -193 40 0 8 33 2 0c6,-11 14,-20 24,-26 11,-7 22,-10 33,-10zm88 99c0,19 3,34 9,43 6,10 17,15 31,15 14,0 24,-5 30,-15 6,-9 9,-24 9,-43 0,-19 -3,-33 -9,-43 -7,-9 -17,-14 -31,-14 -14,0 -24,5 -30,14 -6,10 -9,24 -9,43zm133 0c0,32 -9,56 -25,74 -17,17 -40,26 -69,26 -18,0 -35,-4 -49,-12 -14,-8 -25,-20 -32,-35 -8,-15 -12,-33 -12,-53 0,-31 9,-56 25,-73 16,-17 39,-26 69,-26 18,0 35,4 49,12 14,8 25,19 32,34 8,16 12,33 12,53zm148 100c-22,0 -40,-8 -53,-25l-2 0c1,17 2,26 2,28l0 78 -52 0 0 -277 42 0 8 25 2 0c13,-19 31,-28 55,-28 22,0 40,9 53,26 13,18 19,42 19,73 0,21 -3,39 -9,54 -6,15 -14,26 -25,34 -12,8 -25,12 -40,12zm-15 -157c-13,0 -23,4 -28,12 -6,8 -10,21 -10,39l0 6c0,20 3,35 9,44 7,9 16,13 30,13 23,0 35,-19 35,-58 0,-18 -3,-33 -9,-42 -6,-9 -15,-14 -27,-14zm174 57c0,19 3,34 10,43 6,10 16,15 30,15 14,0 24,-5 30,-15 6,-9 9,-24 9,-43 0,-19 -3,-33 -9,-43 -6,-9 -16,-14 -30,-14 -14,0 -24,5 -30,14 -7,10 -10,24 -10,43zm133 0c0,32 -8,56 -25,74 -16,17 -39,26 -69,26 -18,0 -34,-4 -48,-12 -14,-8 -25,-20 -33,-35 -7,-15 -11,-33 -11,-53 0,-31 8,-56 24,-73 17,-17 40,-26 69,-26 19,0 35,4 49,12 14,8 25,19 33,34 7,16 11,33 11,53zm28 181c-13,0 -25,-1 -35,-4l0 -42c8,3 17,4 25,4 9,0 15,-3 19,-8 4,-5 6,-12 6,-21l0 -206 53 0 0 213c0,21 -6,36 -18,47 -12,11 -28,17 -50,17zm13 -326c0,-17 10,-26 29,-26 19,0 28,9 28,26 0,8 -2,14 -7,19 -5,4 -12,7 -21,7 -19,0 -29,-9 -29,-26zm189 83c-11,0 -20,4 -26,11 -6,7 -10,17 -11,30l74 0c0,-13 -4,-23 -10,-30 -7,-7 -16,-11 -27,-11zm8 162c-31,0 -55,-8 -73,-26 -17,-17 -26,-41 -26,-72 0,-32 8,-57 24,-75 16,-17 39,-26 67,-26 27,0 48,8 63,23 15,16 23,37 23,64l0 26 -124 0c1,14 5,26 13,34 9,9 20,13 35,13 12,0 23,-1 33,-4 10,-2 21,-6 32,-11l0 40c-9,5 -19,8 -29,11 -11,2 -23,3 -38,3zm298 -3l-53 0 0 -113c0,-13 -2,-24 -7,-31 -5,-7 -13,-10 -24,-10 -14,0 -25,5 -31,14 -7,10 -10,26 -10,49l0 91 -52 0 0 -193 40 0 7 25 3 0c5,-9 13,-16 24,-21 10,-5 22,-7 35,-7 22,0 39,6 50,18 12,12 18,30 18,52l0 126zm106 0l-52 0 0 -193 52 0 0 193zm-55 -214l0 -4c20,-23 33,-40 41,-52l58 0 0 4c-6,6 -16,14 -30,26 -14,12 -26,21 -34,26l-35 0zm247 214l-73 -193 55 0 37 110c4,14 7,27 8,39l1 0c0,-11 3,-24 7,-39l37 -110 55 0 -73 193 -54 0zm234 -159c-11,0 -20,4 -26,11 -6,7 -10,17 -11,30l74 0c0,-13 -4,-23 -10,-30 -7,-7 -16,-11 -27,-11zm8 162c-31,0 -55,-8 -73,-26 -17,-17 -26,-41 -26,-72 0,-32 8,-57 24,-75 16,-17 38,-26 67,-26 27,0 48,8 63,23 15,16 23,37 23,64l0 26 -124 0c1,14 5,26 13,34 9,9 20,13 35,13 12,0 23,-1 33,-4 10,-2 21,-6 32,-11l0 40c-9,5 -19,8 -29,11 -11,2 -23,3 -38,3zm173 -3l-52 0 0 -268 52 0 0 268zm105 -105l23 -29 54 -59 59 0 -76 84 81 109 -61 0 -55 -78 -23 18 0 60 -52 0 0 -268 52 0 0 119 -2 44 0 0zm141 -88l57 0 36 109c3,9 5,20 7,33l1 0c1,-12 3,-23 7,-33l36 -109 56 0 -81 217c-8,20 -19,35 -32,45 -14,10 -30,15 -49,15 -9,0 -18,-1 -26,-3l0 -41c6,1 13,2 20,2 10,0 18,-3 25,-9 7,-5 12,-14 16,-25l3 -10 -76 -191zm67 -21l0 -4c20,-23 33,-40 41,-52l58 0 0 4c-6,6 -16,14 -30,26 -15,12 -26,21 -34,26l-35 0zm238 217c-60,0 -89,-33 -89,-98 0,-33 8,-58 24,-75 16,-17 39,-26 70,-26 22,0 42,4 60,13l-16 40c-8,-3 -16,-6 -23,-8 -7,-2 -14,-3 -21,-3 -27,0 -41,20 -41,58 0,38 14,56 41,56 10,0 19,-1 28,-4 8,-2 17,-6 26,-12l0 45c-9,5 -17,9 -26,11 -9,2 -20,3 -33,3zm280 -3l-52 0 0 -113c0,-27 -10,-41 -31,-41 -15,0 -25,5 -32,15 -6,10 -10,26 -10,48l0 91 -52 0 0 -268 52 0 0 55c0,4 0,14 -1,30l-1 15 3 0c11,-19 30,-28 55,-28 23,0 40,6 52,18 11,12 17,30 17,52l0 126zm191 0l-73 -193 55 0 37 110c4,14 7,27 8,39l1 0c0,-11 3,-24 8,-39l37 -110 54 0 -73 193 -54 0zm127 -193l58 0 36 109c3,9 5,20 6,33l1 0c2,-12 4,-23 8,-33l35 -109 57 0 -82 217c-7,20 -18,35 -32,45 -13,10 -30,15 -48,15 -9,0 -18,-1 -27,-3l0 -41c7,1 14,2 21,2 9,0 17,-3 24,-9 7,-5 13,-14 17,-25l3 -10 -77 -191zm68 -21l0 -4c20,-23 33,-40 40,-52l59 0 0 4c-6,6 -16,14 -30,26 -15,12 -26,21 -34,26l-35 0zm267 18c7,0 13,0 18,1l-4 50c-4,-2 -10,-2 -16,-2 -16,0 -29,4 -39,13 -9,8 -14,20 -14,36l0 98 -52 0 0 -193 40 0 7 33 3 0c6,-11 14,-20 24,-26 10,-7 21,-10 33,-10zm87 99c0,19 4,34 10,43 6,10 16,15 30,15 14,0 24,-5 30,-15 7,-9 10,-24 10,-43 0,-19 -3,-33 -10,-43 -6,-9 -16,-14 -30,-14 -14,0 -24,5 -30,14 -6,10 -10,24 -10,43zm133 0c0,32 -8,56 -25,74 -16,17 -39,26 -68,26 -19,0 -35,-4 -49,-12 -14,-8 -25,-20 -33,-35 -7,-15 -11,-33 -11,-53 0,-31 8,-56 25,-73 16,-17 39,-26 69,-26 18,0 34,4 48,12 14,8 25,19 33,34 7,16 11,33 11,53zm150 -99c23,0 41,9 54,27 13,17 19,41 19,72 0,32 -7,57 -20,74 -13,17 -31,26 -54,26 -23,0 -40,-8 -53,-25l-4 0 -8 22 -40 0 0 -268 52 0 0 62c0,8 -1,21 -2,38l2 0c12,-19 30,-28 54,-28zm-16 42c-13,0 -23,4 -29,12 -6,8 -9,21 -9,39l0 6c0,20 3,35 9,44 6,9 16,13 29,13 11,0 20,-4 26,-14 6,-10 10,-25 10,-44 0,-18 -4,-33 -10,-42 -7,-9 -15,-14 -26,-14zm309 154l-52 0 0 -113c0,-13 -2,-24 -7,-31 -5,-7 -13,-10 -24,-10 -15,0 -25,5 -32,14 -6,10 -9,26 -9,49l0 91 -53 0 0 -193 40 0 7 25 3 0c6,-9 14,-16 24,-21 11,-5 22,-7 35,-7 23,0 39,6 51,18 12,12 17,30 17,52l0 126zm107 0l-53 0 0 -193 53 0 0 193zm-55 -214l0 -4c20,-23 33,-40 40,-52l59 0 0 4c-6,6 -16,14 -30,26 -15,12 -26,21 -34,26l-35 0zm188 217c-60,0 -90,-33 -90,-98 0,-33 8,-58 24,-75 17,-17 40,-26 70,-26 23,0 42,4 60,13l-15 40c-9,-3 -16,-6 -23,-8 -7,-2 -15,-3 -22,-3 -27,0 -40,20 -40,58 0,38 13,56 40,56 10,0 20,-1 28,-4 9,-2 18,-6 26,-12l0 45c-8,5 -17,9 -26,11 -8,2 -19,3 -32,3zm280 -3l-53 0 0 -113c0,-27 -10,-41 -30,-41 -15,0 -26,5 -32,15 -7,10 -10,26 -10,48l0 91 -52 0 0 -268 52 0 0 55c0,4 0,14 -1,30l-1 15 2 0c12,-19 31,-28 56,-28 23,0 40,6 51,18 12,12 18,30 18,52l0 126zm279 0l-152 0 0 -31 89 -121 -83 0 0 -41 143 0 0 35 -87 117 90 0 0 41zm99 3c-23,0 -41,-9 -53,-26 -13,-18 -20,-42 -20,-73 0,-32 7,-56 20,-74 13,-17 31,-26 54,-26 24,0 43,9 55,28l2 0c-2,-14 -4,-27 -4,-38l0 -62 53 0 0 268 -40 0 -11 -25 -2 0c-12,19 -30,28 -54,28zm18 -42c14,0 23,-4 30,-11 6,-8 9,-21 10,-40l0 -6c0,-20 -3,-35 -10,-44 -6,-9 -16,-13 -31,-13 -11,0 -21,4 -27,14 -6,10 -10,25 -10,44 0,18 4,33 10,42 7,9 16,14 28,14zm251 -157c7,0 13,0 17,1l-4 50c-4,-2 -9,-2 -15,-2 -17,0 -30,4 -39,13 -9,8 -14,20 -14,36l0 98 -52 0 0 -193 39 0 8 33 2 0c6,-11 14,-20 25,-26 10,-7 21,-10 33,-10zm87 99c0,19 3,34 9,43 7,10 17,15 31,15 14,0 24,-5 30,-15 6,-9 9,-24 9,-43 0,-19 -3,-33 -9,-43 -6,-9 -16,-14 -31,-14 -13,0 -24,5 -30,14 -6,10 -9,24 -9,43zm133 0c0,32 -8,56 -25,74 -16,17 -39,26 -69,26 -18,0 -35,-4 -49,-12 -14,-8 -25,-20 -32,-35 -8,-15 -11,-33 -11,-53 0,-31 8,-56 24,-73 17,-17 40,-26 69,-26 19,0 35,4 49,12 14,8 25,19 32,34 8,16 12,33 12,53zm28 181c-14,0 -25,-1 -35,-4l0 -42c8,3 16,4 25,4 9,0 15,-3 19,-8 4,-5 6,-12 6,-21l0 -206 52 0 0 213c0,21 -5,36 -17,47 -12,11 -29,17 -50,17zm13 -326c0,-17 9,-26 28,-26 19,0 29,9 29,26 0,8 -2,14 -7,19 -5,4 -12,7 -22,7 -19,0 -28,-9 -28,-26zm245 242l-7 -25 -2 0c-6,9 -14,16 -24,21 -11,5 -22,7 -35,7 -23,0 -40,-6 -51,-18 -12,-12 -18,-30 -18,-52l0 -126 53 0 0 113c0,13 2,24 7,31 5,7 13,10 24,10 14,0 25,-5 31,-15 7,-9 10,-25 10,-48l0 -91 53 0 0 193 -41 0zm-5 -255c0,13 -4,23 -12,30 -8,8 -19,12 -32,12 -12,0 -23,-4 -31,-11 -7,-8 -11,-18 -11,-30 0,-13 4,-22 11,-30 8,-7 18,-11 31,-11 13,0 23,4 32,11 8,8 12,18 12,29zm-27 1c0,-5 -2,-9 -5,-12 -3,-3 -7,-5 -12,-5 -5,0 -8,2 -12,5 -3,3 -4,7 -4,12 0,5 1,9 4,12 3,3 7,4 12,4 5,0 9,-1 12,-4 3,-3 5,-7 5,-12z"/>
  <path class="fil1" d="M5551 705c4,0 8,1 11,1l-3 30c-2,-1 -5,-1 -9,-1 -10,0 -18,2 -23,8 -6,5 -9,12 -9,21l0 59 -31 0 0 -116 24 0 4 20 2 0c4,-7 8,-12 14,-16 6,-4 13,-6 20,-6zm53 60c0,11 2,20 5,26 4,6 10,9 19,9 8,0 14,-3 18,-9 3,-6 5,-15 5,-26 0,-11 -2,-20 -5,-26 -4,-5 -10,-8 -19,-8 -8,0 -14,3 -18,8 -4,6 -5,14 -5,26zm79 0c0,19 -5,33 -15,44 -9,11 -23,16 -41,16 -11,0 -21,-3 -29,-7 -9,-5 -15,-12 -20,-21 -4,-9 -6,-20 -6,-32 0,-19 4,-34 14,-44 10,-10 24,-16 42,-16 11,0 21,3 29,8 8,4 15,11 19,20 5,9 7,20 7,32zm56 -5l14 -17 32 -36 36 0 -46 50 49 66 -37 0 -33 -47 -13 11 0 36 -32 0 0 -161 32 0 0 72 -2 26 0 0zm253 63l-105 0 0 -22 38 -39c11,-11 18,-19 22,-24 3,-4 6,-8 7,-12 2,-4 3,-7 3,-12 0,-6 -2,-10 -5,-13 -4,-3 -8,-4 -14,-4 -6,0 -11,1 -17,4 -5,2 -11,6 -17,11l-17 -21c7,-6 13,-10 18,-13 5,-3 10,-5 16,-6 6,-1 12,-2 19,-2 10,0 18,2 25,5 8,4 13,8 17,15 4,6 6,13 6,21 0,7 -1,13 -4,19 -2,6 -6,13 -11,19 -5,6 -14,15 -27,27l-19 18 0 2 65 0 0 27zm120 -76c0,27 -4,46 -13,59 -9,13 -22,19 -40,19 -17,0 -30,-7 -39,-20 -9,-13 -13,-32 -13,-58 0,-26 4,-46 13,-58 8,-13 21,-19 39,-19 18,0 31,6 40,20 9,13 13,32 13,57zm-74 0c0,19 2,32 5,40 3,8 9,12 16,12 8,0 13,-4 16,-12 4,-8 5,-21 5,-40 0,-18 -1,-31 -5,-39 -3,-8 -8,-13 -16,-13 -7,0 -13,5 -16,13 -3,8 -5,21 -5,39zm195 76l-105 0 0 -22 38 -39c11,-11 18,-19 22,-24 3,-4 6,-8 7,-12 2,-4 2,-7 2,-12 0,-6 -1,-10 -5,-13 -3,-3 -7,-4 -13,-4 -6,0 -11,1 -17,4 -5,2 -11,6 -17,11l-17 -21c7,-6 13,-10 18,-13 5,-3 10,-5 16,-6 6,-1 12,-2 19,-2 10,0 18,2 25,5 8,4 13,8 17,15 4,6 6,13 6,21 0,7 -1,13 -4,19 -2,6 -6,13 -11,19 -5,6 -14,15 -27,27l-19 18 0 2 65 0 0 27zm120 -76c0,27 -4,46 -13,59 -9,13 -22,19 -40,19 -17,0 -30,-7 -39,-20 -9,-13 -13,-32 -13,-58 0,-26 4,-46 13,-58 8,-13 21,-19 39,-19 18,0 31,6 40,20 9,13 13,32 13,57zm-74 0c0,19 2,32 5,40 3,8 9,12 16,12 8,0 13,-4 16,-12 4,-8 5,-21 5,-40 0,-18 -1,-31 -5,-39 -3,-8 -8,-13 -16,-13 -7,0 -13,5 -16,13 -3,8 -5,21 -5,39z"/>
  <path class="fil1" d="M7804 962l-3768 0 0 2390 3768 0 0 -2390zm-3774 -12l3780 0 7 0 0 6 0 2402 0 7 -7 0 -3780 0 -7 0 0 -7 0 -2402 0 -6 7 0z"/>
  <g id="_525925872736">
   <polygon class="fil1" points="6310,1402 6445,1402 6445,1427 6310,1427 "/>
   <polygon class="fil5" points="6310,1539 6445,1539 6445,1564 6310,1564 "/>
   <path class="fil1" d="M6488 1253l0 -88 19 0 0 73 36 0 0 15 -55 0zm121 0l-51 0 0 -88 51 0 0 16 -32 0 0 19 29 0 0 15 -29 0 0 23 32 0 0 15zm51 -49l35 0 0 46c-6,1 -11,3 -16,3 -5,1 -10,2 -15,2 -13,0 -24,-4 -31,-12 -7,-8 -10,-19 -10,-34 0,-14 4,-25 12,-33 8,-8 19,-12 34,-12 9,0 18,2 26,6l-6 14c-7,-3 -13,-4 -20,-4 -8,0 -15,2 -20,8 -4,5 -7,13 -7,22 0,9 2,16 6,21 4,6 10,8 17,8 4,0 8,0 12,-1l0 -19 -17 0 0 -15zm107 49l-51 0 0 -88 51 0 0 16 -32 0 0 19 29 0 0 15 -29 0 0 23 32 0 0 15zm96 0l-24 0 -38 -66 0 0c0,12 1,20 1,25l0 41 -17 0 0 -88 24 0 38 66 0 0c-1,-11 -1,-19 -1,-24l0 -42 17 0 0 88zm95 -44c0,14 -4,25 -12,33 -9,7 -20,11 -36,11l-25 0 0 -88 28 0c14,0 25,4 33,12 8,7 12,18 12,32zm-19 0c0,-19 -9,-28 -25,-28l-10 0 0 57 8 0c18,0 27,-10 27,-29zm89 44l-7 -21 -32 0 -6 21 -20 0 31 -88 23 0 31 88 -20 0zm-11 -36c-6,-19 -9,-30 -10,-32 -1,-3 -1,-5 -2,-6 -1,5 -5,18 -11,38l23 0z"/>
   <g>
    <path class="fil1" d="M6536 1440l0 -36c0,-5 -1,-8 -3,-11 -2,-2 -5,-3 -10,-3 -6,0 -10,2 -13,5 -3,3 -4,8 -4,16l0 29 -9 0 0 -80 9 0 0 24c0,3 0,6 0,8l0 0c2,-3 4,-5 7,-7 3,-1 7,-2 11,-2 7,0 12,2 15,5 4,3 6,8 6,15l0 37 -9 0zm75 -28c0,9 -2,16 -7,22 -5,5 -11,7 -19,7 -5,0 -10,-1 -14,-3 -4,-3 -7,-6 -9,-10 -2,-5 -3,-10 -3,-16 0,-9 2,-16 7,-21 5,-6 11,-8 19,-8 8,0 14,2 19,8 5,5 7,12 7,21zm-43 0c0,7 1,13 4,17 3,3 7,5 13,5 6,0 10,-2 13,-5 3,-4 4,-10 4,-17 0,-7 -1,-13 -4,-16 -3,-4 -7,-6 -13,-6 -6,0 -10,2 -13,6 -3,3 -4,9 -4,16zm84 -29c2,0 4,0 6,0l-1 8c-2,0 -4,0 -6,0 -4,0 -8,1 -12,5 -3,4 -4,9 -4,14l0 30 -9 0 0 -56 7 0 1 10 0 0c2,-3 5,-6 8,-8 3,-2 6,-3 10,-3zm25 28c2,-2 4,-4 7,-8l18 -19 11 0 -23 24 24 32 -10 0 -20 -26 -7 5 0 21 -8 0 0 -80 8 0 0 43c0,2 0,4 0,8l0 0zm94 1c0,9 -2,16 -7,22 -5,5 -11,7 -19,7 -5,0 -10,-1 -14,-3 -3,-3 -6,-6 -9,-10 -2,-5 -3,-10 -3,-16 0,-9 2,-16 7,-21 5,-6 11,-8 19,-8 8,0 14,2 19,8 5,5 7,12 7,21zm-43 0c0,7 1,13 4,17 3,3 7,5 13,5 6,0 10,-2 13,-5 3,-4 4,-10 4,-17 0,-7 -1,-13 -4,-16 -3,-4 -7,-6 -13,-6 -6,0 -10,2 -13,6 -3,3 -4,9 -4,16zm68 28l-21 -56 9 0 12 33c3,8 5,13 5,16l0 0c1,-2 2,-6 4,-12 2,-5 7,-18 14,-37l9 0 -22 56 -10 0zm90 -28c0,9 -3,16 -7,22 -5,5 -11,7 -20,7 -5,0 -9,-1 -13,-3 -4,-3 -7,-6 -9,-10 -2,-5 -3,-10 -3,-16 0,-9 2,-16 7,-21 4,-6 11,-8 19,-8 8,0 14,2 19,8 4,5 7,12 7,21zm-43 0c0,7 1,13 4,17 3,3 7,5 13,5 5,0 9,-2 12,-5 3,-4 5,-10 5,-17 0,-7 -2,-13 -5,-16 -3,-4 -7,-6 -12,-6 -6,0 -10,2 -13,6 -3,3 -4,9 -4,16zm96 21l0 0c-4,6 -10,8 -18,8 -8,0 -13,-2 -17,-7 -5,-5 -7,-12 -7,-22 0,-9 2,-16 7,-21 4,-6 9,-8 17,-8 7,0 13,3 17,8l1 0 0 -4 0 -4 0 -23 8 0 0 80 -7 0 -1 -7zm-17 1c6,0 10,-1 13,-5 2,-3 4,-8 4,-15l0 -2c0,-8 -2,-13 -4,-17 -3,-3 -7,-5 -13,-5 -5,0 -9,2 -12,6 -2,4 -4,9 -4,16 0,8 2,13 4,17 3,3 7,5 12,5zm34 -50l9 0 13 32c3,7 4,13 5,16l0 0c1,-2 2,-5 3,-9 2,-4 6,-17 14,-39l9 0 -24 64c-2,7 -5,11 -8,14 -4,2 -8,4 -12,4 -3,0 -5,-1 -8,-1l0 -7c2,0 4,1 6,1 6,0 10,-4 13,-10l3 -8 -23 -57zm126 41c0,5 -2,9 -6,12 -4,3 -9,4 -16,4 -8,0 -13,-1 -18,-3l0 -8c3,1 6,2 9,3 3,1 6,1 9,1 5,0 8,0 10,-2 3,-1 4,-3 4,-6 0,-3 -1,-4 -3,-6 -2,-2 -5,-3 -11,-6 -5,-1 -9,-3 -11,-5 -2,-1 -4,-3 -5,-5 -1,-1 -2,-4 -2,-6 0,-5 2,-9 6,-11 4,-3 9,-4 15,-4 6,0 12,1 18,4l-3 6c-6,-2 -11,-3 -15,-3 -4,0 -7,1 -10,2 -2,1 -3,3 -3,5 0,2 1,3 2,4 0,1 2,2 3,3 2,1 5,2 10,4 7,3 11,5 14,8 2,2 3,5 3,9zm32 9c2,0 3,0 5,0 1,0 2,0 3,-1l0 7c-1,0 -2,1 -4,1 -2,0 -3,0 -5,0 -11,0 -16,-5 -16,-17l0 -33 -8 0 0 -5 8 -3 3 -12 5 0 0 13 17 0 0 7 -17 0 0 33c0,3 1,6 3,8 1,1 4,2 6,2zm54 6l-2 -8 0 0c-3,4 -6,6 -8,8 -3,1 -7,1 -11,1 -5,0 -10,-1 -13,-4 -3,-3 -5,-7 -5,-12 0,-12 9,-18 28,-18l9 -1 0 -3c0,-4 -1,-8 -3,-10 -2,-2 -5,-3 -9,-3 -5,0 -10,1 -16,4l-2 -6c2,-2 5,-3 9,-4 3,-1 6,-1 10,-1 6,0 11,1 15,4 3,3 5,8 5,15l0 38 -7 0zm-19 -6c5,0 9,-1 12,-4 3,-3 5,-7 5,-12l0 -5 -9 0c-6,0 -11,1 -14,3 -3,2 -5,5 -5,9 0,3 1,5 3,7 2,2 4,2 8,2zm-2 -59c2,-2 3,-5 5,-8 2,-3 4,-5 5,-8l10 0 0 2c-1,2 -4,5 -7,8 -3,3 -5,6 -7,7l-6 0 0 -1zm58 65l-22 -56 9 0 12 33c3,8 5,13 5,16l1 0c0,-2 1,-6 3,-12 2,-5 7,-18 14,-37l9 0 -21 56 -10 0zm75 0l-2 -8 0 0c-3,4 -6,6 -9,8 -3,1 -6,1 -10,1 -6,0 -10,-1 -13,-4 -4,-3 -5,-7 -5,-12 0,-12 9,-18 27,-18l10 -1 0 -3c0,-4 -1,-8 -3,-10 -2,-2 -5,-3 -9,-3 -5,0 -10,1 -16,4l-3 -6c3,-2 6,-3 9,-4 4,-1 7,-1 10,-1 7,0 12,1 15,4 3,3 5,8 5,15l0 38 -6 0zm-20 -6c6,0 10,-1 13,-4 3,-3 5,-7 5,-12l0 -5 -9 0c-7,0 -12,1 -15,3 -3,2 -4,5 -4,9 0,3 1,5 3,7 1,2 4,2 7,2zm37 32c-3,0 -6,-1 -8,-2l0 -7c2,1 5,1 7,1 3,0 5,0 6,-2 1,-1 2,-3 2,-6l0 -66 8 0 0 65c0,11 -5,17 -15,17zm6 -97c0,-2 0,-4 1,-5 1,-1 3,-1 4,-1 1,0 3,0 4,1 1,1 1,3 1,5 0,1 0,3 -1,4 -1,1 -3,1 -4,1 -1,0 -3,0 -4,-1 -1,-1 -1,-3 -1,-4zm36 71l-9 0 0 -56 9 0 0 56zm-9 -65c2,-2 4,-5 5,-8 2,-3 4,-5 5,-8l10 0 0 2c-1,2 -3,5 -6,8 -3,3 -6,6 -8,7l-6 0 0 -1zm50 66c-8,0 -15,-2 -19,-7 -5,-5 -7,-12 -7,-22 0,-9 2,-16 7,-21 4,-6 11,-8 19,-8 3,0 6,0 8,1 3,0 5,1 7,2l-3 7c-2,-1 -4,-1 -6,-2 -2,0 -4,-1 -6,-1 -11,0 -17,8 -17,22 0,7 1,13 4,16 3,4 7,6 13,6 4,0 9,-1 14,-3l0 7c-4,2 -9,3 -14,3zm36 -1l-9 0 0 -56 9 0 0 56zm-9 -65c2,-2 3,-5 5,-8 2,-3 4,-5 5,-8l10 0 0 2c-1,2 -3,5 -6,8 -3,3 -6,6 -8,7l-6 0 0 -1zm-871 209l0 -36c0,-5 -1,-8 -3,-11 -2,-2 -5,-3 -10,-3 -6,0 -10,1 -13,5 -3,3 -4,8 -4,16l0 29 -9 0 0 -80 9 0 0 24c0,3 0,6 0,7l0 0c2,-2 4,-4 7,-6 3,-2 7,-2 11,-2 7,0 12,1 15,5 4,3 6,8 6,15l0 37 -9 0zm68 -28c0,9 -2,16 -7,21 -4,6 -11,8 -19,8 -5,0 -10,-1 -14,-3 -3,-3 -6,-6 -9,-11 -2,-4 -3,-9 -3,-15 0,-9 3,-17 7,-22 5,-5 11,-7 19,-7 8,0 14,2 19,7 5,6 7,13 7,22zm-43 0c0,7 2,13 4,16 3,4 8,6 13,6 6,0 10,-2 13,-6 3,-3 4,-9 4,-16 0,-7 -1,-13 -4,-17 -3,-3 -7,-5 -13,-5 -6,0 -10,2 -13,5 -3,4 -4,10 -4,17zm77 -29c2,0 5,0 7,0l-1 8c-3,0 -5,-1 -7,-1 -4,0 -8,2 -11,6 -4,4 -5,8 -5,14l0 30 -9 0 0 -56 7 0 1 10 1 0c2,-4 4,-6 7,-8 3,-2 6,-3 10,-3zm19 28c1,-2 4,-5 7,-8l18 -19 10 0 -23 24 25 32 -11 0 -20 -27 -6 6 0 21 -9 0 0 -80 9 0 0 42c0,2 0,5 0,9l0 0zm87 1c0,9 -3,16 -7,21 -5,6 -11,8 -20,8 -5,0 -9,-1 -13,-3 -4,-3 -7,-6 -9,-11 -2,-4 -3,-9 -3,-15 0,-9 2,-17 7,-22 4,-5 11,-7 19,-7 8,0 14,2 19,7 4,6 7,13 7,22zm-43 0c0,7 1,13 4,16 3,4 7,6 13,6 5,0 10,-2 12,-6 3,-3 5,-9 5,-16 0,-7 -2,-13 -5,-17 -2,-3 -7,-5 -12,-5 -6,0 -10,2 -13,5 -3,4 -4,10 -4,17zm61 28l-21 -56 9 0 12 33c3,8 4,13 5,15l0 0c1,-1 2,-5 4,-11 2,-6 6,-18 13,-37l9 0 -21 56 -10 0zm82 -28c0,9 -2,16 -7,21 -4,6 -11,8 -19,8 -5,0 -9,-1 -13,-3 -4,-3 -7,-6 -9,-11 -2,-4 -3,-9 -3,-15 0,-9 2,-17 6,-22 5,-5 11,-7 20,-7 8,0 14,2 18,7 5,6 7,13 7,22zm-43 0c0,7 2,13 5,16 3,4 7,6 12,6 6,0 10,-2 13,-6 3,-3 5,-9 5,-16 0,-7 -2,-13 -5,-17 -3,-3 -7,-5 -13,-5 -5,0 -9,2 -12,5 -3,4 -5,10 -5,17zm90 21l0 0c-4,5 -10,8 -18,8 -8,0 -13,-2 -17,-7 -5,-5 -7,-13 -7,-22 0,-9 2,-17 7,-22 4,-5 9,-7 17,-7 8,0 13,2 17,8l1 0 0 -4 0 -4 0 -23 8 0 0 80 -7 0 -1 -7zm-17 1c6,0 10,-2 13,-5 2,-3 4,-8 4,-15l0 -2c0,-8 -2,-14 -4,-17 -3,-4 -7,-5 -13,-5 -5,0 -9,2 -12,6 -2,3 -4,9 -4,16 0,7 2,13 4,16 3,4 7,6 12,6zm27 -50l10 0 12 32c3,7 4,12 5,16l0 0c1,-2 2,-5 3,-9 2,-5 6,-18 14,-39l9 0 -24 64c-2,6 -5,11 -8,13 -3,3 -7,4 -12,4 -3,0 -5,0 -8,0l0 -7c2,0 4,0 6,0 6,0 11,-3 13,-10l3 -8 -23 -56zm115 56l0 -36c0,-5 -1,-8 -3,-11 -2,-2 -6,-3 -10,-3 -6,0 -10,1 -13,5 -3,3 -4,8 -4,15l0 30 -9 0 0 -56 7 0 2 7 0 0c2,-2 4,-5 7,-6 4,-2 7,-2 11,-2 7,0 12,1 15,4 4,4 6,9 6,16l0 37 -9 0zm68 -28c0,9 -2,16 -7,21 -5,6 -11,8 -19,8 -5,0 -10,-1 -14,-3 -4,-3 -7,-6 -9,-11 -2,-4 -3,-9 -3,-15 0,-9 2,-17 7,-22 5,-5 11,-7 19,-7 8,0 14,2 19,7 5,6 7,13 7,22zm-43 0c0,7 1,13 4,16 3,4 7,6 13,6 6,0 10,-2 13,-6 3,-3 4,-9 4,-16 0,-7 -1,-13 -4,-17 -3,-3 -7,-5 -13,-5 -6,0 -10,2 -13,5 -3,4 -4,10 -4,17zm61 28l-21 -56 9 0 12 33c3,8 5,13 5,15l1 0c0,-1 1,-5 3,-11 2,-6 7,-18 14,-37l9 0 -22 56 -10 0zm58 1c-8,0 -15,-2 -20,-8 -5,-5 -7,-12 -7,-21 0,-9 2,-16 7,-21 4,-6 10,-8 18,-8 7,0 12,2 16,7 5,4 7,10 7,18l0 5 -39 0c0,7 2,12 5,15 3,4 7,6 13,6 6,0 12,-2 18,-4l0 7c-3,2 -6,3 -8,3 -3,1 -6,1 -10,1zm-2 -51c-5,0 -9,1 -11,4 -3,3 -5,7 -5,12l29 0c0,-5 -1,-9 -3,-12 -3,-3 -6,-4 -10,-4zm-7 -15c2,-2 4,-5 6,-8 1,-3 3,-6 4,-8l10 0 0 1c-1,3 -3,5 -6,9 -3,3 -6,5 -8,7l-6 0 0 -1zm-610 189c0,6 -2,12 -7,15 -5,4 -11,6 -20,6 -9,0 -15,-1 -20,-4l0 -8c3,1 6,2 10,3 4,1 7,1 11,1 6,0 10,-1 13,-3 3,-2 4,-5 4,-9 0,-3 0,-5 -1,-7 -1,-1 -3,-3 -5,-4 -3,-2 -7,-3 -12,-5 -7,-3 -12,-6 -15,-9 -3,-4 -4,-8 -4,-14 0,-5 2,-10 6,-13 5,-4 10,-6 18,-6 7,0 14,2 20,5l-2 7c-7,-2 -13,-4 -19,-4 -4,0 -8,1 -10,3 -3,2 -4,5 -4,9 0,2 0,4 1,6 1,2 3,3 5,5 2,1 6,2 10,4 8,3 14,6 17,9 3,3 4,8 4,13zm56 20l-9 -24 -30 0 -10 24 -9 0 30 -76 8 0 29 76 -9 0zm-12 -32l-9 -23c-1,-3 -2,-7 -3,-11 -1,3 -2,7 -3,11l-9 23 24 0zm79 32l-10 0 -28 -37 -8 7 0 30 -8 0 0 -76 8 0 0 38 35 -38 10 0 -30 33 31 43zm67 -38c0,12 -3,22 -9,29 -6,6 -15,10 -26,10 -11,0 -19,-4 -25,-10 -6,-7 -9,-17 -9,-29 0,-12 3,-22 9,-29 6,-6 14,-10 25,-10 11,0 20,4 26,11 6,6 9,16 9,28zm-60 0c0,10 2,18 6,23 5,6 11,8 19,8 9,0 15,-2 19,-8 5,-5 7,-13 7,-23 0,-10 -2,-18 -7,-23 -4,-5 -10,-8 -19,-8 -8,0 -14,3 -19,8 -4,5 -6,13 -6,23zm172 18c0,6 -2,12 -7,15 -5,4 -11,6 -20,6 -9,0 -16,-1 -20,-4l0 -8c3,1 6,2 10,3 3,1 7,1 11,1 5,0 10,-1 13,-3 3,-2 4,-5 4,-9 0,-3 0,-5 -1,-7 -1,-1 -3,-3 -6,-4 -2,-2 -6,-3 -11,-5 -7,-3 -12,-6 -15,-9 -3,-4 -4,-8 -4,-14 0,-5 2,-10 6,-13 5,-4 10,-6 18,-6 7,0 14,2 20,5l-3 7c-6,-2 -12,-4 -18,-4 -4,0 -8,1 -11,3 -2,2 -3,5 -3,9 0,2 0,4 1,6 1,2 3,3 5,5 2,1 6,2 10,4 8,3 14,6 17,9 3,3 4,8 4,13zm34 21c-4,0 -7,-1 -10,-2 -3,-2 -6,-4 -8,-6l-1 0c1,3 1,6 1,9l0 23 -9 0 0 -82 7 0 2 8 0 0c2,-3 5,-5 8,-7 3,-1 6,-2 10,-2 7,0 13,3 17,8 4,5 6,12 6,22 0,9 -2,16 -6,21 -4,5 -10,8 -17,8zm-2 -51c-5,0 -10,1 -12,4 -3,4 -4,9 -4,16l0 2c0,7 1,13 4,17 3,3 7,5 13,5 4,0 8,-2 11,-6 3,-4 4,-10 4,-17 0,-7 -1,-12 -4,-16 -3,-4 -7,-5 -12,-5zm68 50l-2 -8 0 0c-3,3 -6,6 -9,7 -2,1 -6,2 -10,2 -6,0 -10,-2 -13,-4 -3,-3 -5,-7 -5,-13 0,-11 9,-17 27,-18l10 0 0 -4c0,-4 -1,-7 -3,-9 -2,-2 -5,-4 -9,-4 -5,0 -10,2 -16,5l-3 -7c3,-1 6,-2 9,-3 4,-1 7,-2 10,-2 7,0 12,2 15,5 4,3 5,8 5,14l0 39 -6 0zm-19 -6c5,0 9,-2 12,-5 3,-3 5,-7 5,-12l0 -5 -9 0c-7,1 -12,2 -15,4 -3,1 -4,4 -4,8 0,3 1,6 3,7 2,2 4,3 8,3zm45 6l-9 0 0 -80 9 0 0 80zm60 -28c0,9 -3,16 -7,21 -5,5 -11,8 -20,8 -5,0 -9,-1 -13,-4 -4,-2 -7,-5 -9,-10 -2,-4 -3,-10 -3,-15 0,-10 2,-17 7,-22 4,-5 11,-8 19,-8 8,0 14,3 19,8 4,5 7,13 7,22zm-43 0c0,7 1,12 4,16 3,4 7,6 13,6 5,0 10,-2 12,-6 3,-4 5,-9 5,-16 0,-8 -2,-13 -5,-17 -2,-4 -7,-5 -12,-5 -6,0 -10,1 -13,5 -3,4 -4,9 -4,17zm61 28l-21 -57 9 0 12 34c3,8 4,13 5,15l0 0c1,-2 2,-6 4,-11 2,-6 6,-18 13,-38l9 0 -21 57 -10 0zm72 0l0 -37c0,-4 -1,-8 -3,-10 -2,-2 -5,-3 -10,-3 -6,0 -10,1 -13,4 -2,4 -4,9 -4,16l0 30 -8 0 0 -57 7 0 1 8 0 0c2,-3 5,-5 8,-6 3,-2 6,-3 10,-3 7,0 12,2 16,5 3,3 5,9 5,16l0 37 -9 0zm54 0l-1 -8 -1 0c-3,3 -5,6 -8,7 -3,1 -7,2 -11,2 -5,0 -10,-2 -13,-4 -3,-3 -5,-7 -5,-13 0,-11 9,-17 28,-18l9 0 0 -4c0,-4 -1,-7 -3,-9 -1,-2 -5,-4 -9,-4 -4,0 -10,2 -16,5l-2 -7c2,-1 6,-2 9,-3 3,-1 6,-2 10,-2 7,0 12,2 15,5 3,3 5,8 5,14l0 39 -7 0zm-19 -6c5,0 10,-2 13,-5 3,-3 4,-7 4,-12l0 -5 -8 0c-7,1 -12,2 -15,4 -3,1 -5,4 -5,8 0,3 1,6 3,7 2,2 5,3 8,3zm65 -23c2,-2 4,-5 7,-8l18 -20 11 0 -23 24 24 33 -10 0 -20 -27 -7 6 0 21 -8 0 0 -80 8 0 0 42c0,2 0,5 0,9l0 0z"/>
    <path class="fil1" d="M7306 1700c0,9 -2,16 -7,21 -4,5 -11,8 -19,8 -5,0 -10,-1 -13,-4 -4,-2 -7,-5 -10,-10 -2,-4 -3,-10 -3,-15 0,-10 3,-17 7,-22 5,-5 11,-8 19,-8 8,0 15,3 19,8 5,5 7,13 7,22zm-43 0c0,7 2,12 4,16 3,4 8,6 13,6 6,0 10,-2 13,-6 3,-4 4,-9 4,-16 0,-8 -1,-13 -4,-17 -3,-4 -7,-5 -13,-5 -6,0 -10,1 -13,5 -2,4 -4,9 -4,17zm123 28l0 -37c0,-4 -1,-8 -3,-10 -2,-2 -5,-3 -9,-3 -5,0 -9,1 -11,4 -3,3 -4,8 -4,14l0 32 -9 0 0 -37c0,-4 -1,-8 -3,-10 -2,-2 -5,-3 -9,-3 -5,0 -9,1 -11,4 -3,4 -4,9 -4,16l0 30 -9 0 0 -57 7 0 2 8 0 0c2,-3 4,-5 7,-6 3,-2 6,-3 10,-3 9,0 14,3 17,10l0 0c2,-3 5,-5 8,-7 3,-2 7,-3 11,-3 6,0 11,2 14,5 3,3 5,9 5,16l0 37 -9 0zm18 -6c0,-2 1,-4 2,-5 1,-1 3,-2 4,-2 2,0 4,1 5,2 1,1 2,3 2,5 0,3 -1,4 -2,5 -1,2 -3,2 -5,2 -1,0 -3,0 -4,-1 -1,-1 -2,-3 -2,-6zm92 -22c0,9 -2,16 -7,21 -4,5 -11,8 -19,8 -5,0 -10,-1 -13,-4 -4,-2 -7,-5 -9,-10 -3,-4 -4,-10 -4,-15 0,-10 3,-17 7,-22 5,-5 11,-8 19,-8 8,0 15,3 19,8 5,5 7,13 7,22zm-43 0c0,7 2,12 4,16 3,4 8,6 13,6 6,0 10,-2 13,-6 3,-4 4,-9 4,-16 0,-8 -1,-13 -4,-17 -3,-4 -7,-5 -13,-5 -5,0 -10,1 -13,5 -2,4 -4,9 -4,17zm90 20l-1 0c-4,6 -10,9 -17,9 -8,0 -14,-3 -18,-8 -4,-5 -6,-12 -6,-21 0,-10 2,-17 6,-22 5,-5 10,-8 18,-8 7,0 13,3 17,9l1 0 0 -4 -1 -4 0 -23 9 0 0 80 -7 0 -1 -8zm-17 2c6,0 10,-2 12,-5 3,-3 4,-8 4,-15l0 -2c0,-8 -1,-14 -4,-17 -2,-4 -7,-6 -12,-6 -5,0 -9,2 -12,6 -3,4 -4,10 -4,17 0,7 1,12 4,16 3,4 7,6 12,6zm62 7c-3,0 -7,-1 -10,-2 -3,-2 -5,-4 -7,-6l-1 0c1,3 1,6 1,9l0 23 -9 0 0 -82 7 0 1 8 1 0c2,-3 4,-5 7,-7 3,-1 7,-2 10,-2 8,0 14,3 18,8 4,5 6,12 6,22 0,9 -2,16 -6,21 -4,5 -10,8 -18,8zm-1 -51c-6,0 -10,1 -12,4 -3,4 -4,9 -4,16l0 2c0,7 1,13 4,17 2,3 7,5 12,5 5,0 9,-2 12,-6 3,-4 4,-10 4,-17 0,-7 -1,-12 -4,-16 -3,-4 -7,-5 -12,-5zm68 50l-2 -8 0 0c-3,3 -6,6 -9,7 -3,1 -6,2 -10,2 -6,0 -10,-2 -13,-4 -4,-3 -5,-7 -5,-13 0,-11 9,-17 27,-18l10 0 0 -4c0,-4 -1,-7 -3,-9 -2,-2 -5,-4 -9,-4 -5,0 -10,2 -16,5l-3 -7c3,-1 6,-2 9,-3 4,-1 7,-2 10,-2 7,0 12,2 15,5 3,3 5,8 5,14l0 39 -6 0zm-20 -6c6,0 10,-2 13,-5 3,-3 4,-7 4,-12l0 -5 -8 0c-7,1 -12,2 -15,4 -3,1 -4,4 -4,8 0,3 1,6 3,7 1,2 4,3 7,3zm75 -2l0 0c-4,6 -10,9 -18,9 -7,0 -13,-3 -17,-8 -4,-5 -6,-12 -6,-21 0,-10 2,-17 6,-22 4,-5 10,-8 17,-8 8,0 14,3 18,9l0 0 0 -4 0 -4 0 -23 8 0 0 80 -7 0 -1 -8zm-17 2c6,0 10,-2 13,-5 3,-3 4,-8 4,-15l0 -2c0,-8 -2,-14 -4,-17 -3,-4 -7,-6 -13,-6 -5,0 -9,2 -11,6 -3,4 -4,10 -4,17 0,7 1,12 4,16 2,4 6,6 11,6zm45 -51l0 37c0,5 1,8 3,10 2,3 5,4 10,4 6,0 10,-2 13,-5 2,-3 4,-9 4,-16l0 -30 8 0 0 57 -7 0 -1 -8 0 0c-2,3 -5,5 -8,7 -3,1 -6,2 -10,2 -7,0 -12,-2 -16,-5 -3,-3 -5,-9 -5,-16l0 -37 9 0zm-1192 147c0,8 -2,14 -7,18 -6,4 -13,6 -23,6l-9 0 0 30 -8 0 0 -76 19 0c19,0 28,8 28,22zm-39 16l8 0c8,0 14,-1 17,-3 4,-3 5,-7 5,-12 0,-5 -1,-9 -4,-12 -4,-2 -9,-3 -16,-3l-10 0 0 30zm81 -31c-9,0 -15,3 -20,8 -5,6 -7,13 -7,23 0,10 2,17 7,23 4,5 11,8 20,8 5,0 11,-1 18,-3l0 8c-6,2 -12,3 -20,3 -11,0 -19,-4 -25,-10 -7,-7 -10,-17 -10,-29 0,-8 2,-15 5,-21 3,-5 7,-10 12,-13 6,-3 12,-5 20,-5 8,0 15,2 20,4l-3 8c-6,-3 -12,-4 -17,-4zm-19 -30l6 0c4,3 7,6 11,10 4,-4 8,-8 11,-10l7 0 0 2 -4 3c-5,5 -8,9 -10,12l-8 0c-1,-1 -2,-3 -4,-5 -2,-2 -5,-6 -9,-10l0 -2zm79 99l-25 -67 -1 0c1,5 1,11 1,19l0 48 -8 0 0 -76 13 0 24 62 1 0 24 -62 13 0 0 76 -9 0 0 -49c0,-6 0,-12 1,-18l-1 0 -25 67 -8 0zm200 -54c0,8 -2,14 -7,18 -6,4 -13,6 -23,6l-9 0 0 30 -8 0 0 -76 19 0c19,0 28,8 28,22zm-39 16l8 0c8,0 14,-1 17,-3 4,-3 5,-7 5,-12 0,-5 -1,-9 -5,-12 -3,-2 -8,-3 -15,-3l-10 0 0 30zm73 -20c2,0 4,0 6,1l-1 8c-2,-1 -4,-1 -6,-1 -4,0 -8,2 -12,5 -3,4 -4,9 -4,14l0 31 -9 0 0 -57 7 0 1 11 0 0c3,-4 5,-7 8,-9 3,-2 6,-3 10,-3zm57 29c0,9 -3,17 -7,22 -5,5 -11,8 -19,8 -5,0 -10,-2 -14,-4 -4,-2 -7,-6 -9,-10 -2,-5 -3,-10 -3,-16 0,-9 2,-16 7,-21 4,-5 11,-8 19,-8 8,0 14,3 19,8 4,5 7,12 7,21zm-43 0c0,7 1,13 4,17 3,4 7,5 13,5 5,0 10,-1 13,-5 3,-4 4,-9 4,-17 0,-7 -1,-12 -4,-16 -3,-4 -8,-6 -13,-6 -6,0 -10,2 -13,6 -3,3 -4,9 -4,16zm61 29l-21 -57 9 0 12 34c3,7 4,12 5,15l0 0c1,-2 2,-6 4,-11 2,-6 6,-19 13,-38l10 0 -22 57 -10 0zm83 -29c0,9 -3,17 -7,22 -5,5 -11,8 -20,8 -5,0 -9,-2 -13,-4 -4,-2 -7,-6 -9,-10 -2,-5 -3,-10 -3,-16 0,-9 2,-16 7,-21 4,-5 11,-8 19,-8 8,0 14,3 19,8 4,5 7,12 7,21zm-43 0c0,7 1,13 4,17 3,4 7,5 13,5 5,0 10,-1 12,-5 3,-4 5,-9 5,-17 0,-7 -2,-12 -5,-16 -2,-4 -7,-6 -12,-6 -6,0 -10,2 -13,6 -3,3 -4,9 -4,16zm86 29l-41 0 0 -6 31 -44 -29 0 0 -7 38 0 0 7 -30 43 31 0 0 7zm60 -69c-8,0 -14,3 -19,8 -5,6 -7,13 -7,23 0,10 2,17 7,23 4,5 11,8 19,8 6,0 12,-1 18,-3l0 8c-5,2 -11,3 -19,3 -11,0 -20,-4 -26,-10 -6,-7 -9,-17 -9,-29 0,-8 2,-15 5,-21 2,-5 7,-10 12,-13 6,-3 12,-5 19,-5 8,0 15,2 21,4l-4 8c-5,-3 -11,-4 -17,-4zm-19 -30l6 0c4,3 8,6 12,10 4,-4 8,-8 11,-10l6 0 0 2 -3 3c-5,5 -8,9 -10,12l-9 0c0,-1 -2,-3 -3,-5 -2,-2 -5,-6 -10,-10l0 -2zm69 100c-8,0 -15,-3 -19,-8 -5,-5 -8,-12 -8,-21 0,-9 3,-17 7,-22 5,-5 11,-8 18,-8 7,0 13,2 17,7 4,5 6,11 6,18l0 6 -39 0c0,6 2,12 5,15 3,3 8,5 14,5 6,0 12,-1 18,-4l0 8c-3,1 -6,2 -9,3 -3,0 -6,1 -10,1zm-2 -52c-4,0 -8,2 -11,5 -2,3 -4,7 -5,12l30 0c0,-6 -1,-10 -4,-13 -2,-2 -5,-4 -10,-4zm57 -7c2,0 4,0 6,1l-1 8c-2,-1 -4,-1 -6,-1 -5,0 -8,2 -12,5 -3,4 -5,9 -5,14l0 31 -8 0 0 -57 7 0 1 11 0 0c2,-4 5,-7 8,-9 3,-2 6,-3 10,-3zm22 58l-21 -57 9 0 12 34c3,7 5,12 5,15l1 0c0,-2 1,-6 3,-11 2,-6 7,-19 14,-38l9 0 -22 57 -10 0zm58 1c-8,0 -15,-3 -20,-8 -5,-5 -7,-12 -7,-21 0,-9 2,-17 7,-22 4,-5 10,-8 18,-8 7,0 12,2 17,7 4,5 6,11 6,18l0 6 -39 0c0,6 2,12 5,15 3,3 8,5 13,5 6,0 12,-1 18,-4l0 8c-3,1 -6,2 -8,3 -3,0 -6,1 -10,1zm-2 -52c-5,0 -8,2 -11,5 -3,3 -4,7 -5,12l30 0c0,-6 -2,-10 -4,-13 -2,-2 -6,-4 -10,-4zm69 51l0 -37c0,-5 -1,-8 -3,-10 -2,-3 -5,-4 -10,-4 -6,0 -10,2 -13,5 -3,3 -4,9 -4,16l0 30 -8 0 0 -57 6 0 2 8 0 0c2,-3 4,-5 8,-7 3,-1 6,-2 10,-2 7,0 12,2 16,5 3,3 5,8 5,16l0 37 -9 0zm10 -57l10 0 12 32c3,8 4,13 5,16l0 0c1,-2 2,-5 3,-9 2,-4 6,-17 14,-39l9 0 -24 64c-2,7 -5,11 -8,14 -3,3 -7,4 -12,4 -3,0 -5,0 -8,-1l0 -7c2,1 4,1 7,1 5,0 10,-4 12,-10l3 -8 -23 -57zm22 -9c1,-2 3,-4 5,-7 2,-3 3,-6 4,-8l11 0 0 1c-2,2 -4,5 -7,8 -3,3 -6,6 -8,8l-5 0 0 -2zm126 66l0 -37c0,-5 -1,-8 -3,-10 -2,-3 -5,-4 -9,-4 -5,0 -9,2 -11,5 -3,3 -4,8 -4,14l0 32 -9 0 0 -37c0,-5 -1,-8 -3,-10 -2,-3 -5,-4 -9,-4 -5,0 -9,2 -11,5 -3,3 -4,9 -4,16l0 30 -9 0 0 -57 7 0 2 8 0 0c2,-3 4,-5 7,-7 3,-1 6,-2 10,-2 9,0 14,3 17,10l0 0c2,-3 5,-6 8,-7 3,-2 7,-3 11,-3 6,0 11,2 14,5 3,3 5,8 5,16l0 37 -9 0zm28 0l-8 0 0 -81 8 0 0 81zm3 -57l9 0 12 32c3,8 4,13 5,16l1 0c0,-2 1,-5 2,-9 2,-4 6,-17 14,-39l9 0 -24 64c-2,7 -5,11 -8,14 -3,3 -7,4 -12,4 -3,0 -5,0 -8,-1l0 -7c2,1 4,1 7,1 5,0 10,-4 12,-10l3 -8 -22 -57zm21 -9c1,-2 3,-4 5,-7 2,-3 3,-6 4,-8l11 0 0 1c-2,2 -4,5 -7,8 -3,3 -5,6 -8,8l-5 0 0 -2zm72 66l0 -37c0,-5 -1,-8 -3,-10 -2,-3 -5,-4 -10,-4 -5,0 -10,2 -13,5 -2,3 -4,9 -4,16l0 30 -8 0 0 -57 7 0 1 8 1 0c1,-3 4,-5 7,-7 3,-1 7,-2 11,-2 6,0 11,2 15,5 3,3 5,8 5,16l0 37 -9 0zm-1131 90c0,7 -2,13 -7,17 -6,5 -13,7 -23,7l-9 0 0 29 -8 0 0 -75 19 0c19,0 28,7 28,22zm-39 16l8 0c8,0 14,-1 17,-4 4,-2 5,-6 5,-12 0,-5 -1,-8 -4,-11 -4,-2 -9,-3 -16,-3l-10 0 0 30zm48 -38l22 0c10,0 17,1 21,4 5,3 7,8 7,15 0,4 -1,8 -4,11 -2,3 -6,4 -11,5l0 1c12,2 18,8 18,18 0,7 -3,12 -7,16 -5,3 -11,5 -19,5l-27 0 0 -75zm9 32l15 0c6,0 10,-1 13,-3 3,-2 4,-5 4,-10 0,-4 -2,-7 -5,-9 -3,-2 -7,-2 -14,-2l-13 0 0 24zm0 8l0 28 16 0c6,0 11,-1 14,-4 3,-2 4,-6 4,-11 0,-4 -1,-8 -4,-10 -4,-2 -8,-3 -15,-3l-15 0zm95 15c0,7 -2,12 -7,16 -5,3 -11,5 -19,5 -9,0 -16,-1 -21,-3l0 -9c3,2 6,3 10,4 4,0 7,1 11,1 6,0 10,-1 13,-4 3,-2 5,-5 5,-9 0,-3 -1,-5 -2,-6 -1,-2 -3,-4 -5,-5 -3,-1 -6,-3 -11,-5 -7,-2 -12,-5 -15,-9 -3,-3 -5,-8 -5,-13 0,-6 2,-11 7,-14 4,-3 10,-5 17,-5 7,0 14,1 21,4l-3 8c-6,-3 -12,-4 -18,-4 -5,0 -9,1 -11,3 -3,2 -4,4 -4,8 0,3 0,5 1,6 1,2 3,4 5,5 2,1 6,3 11,5 8,2 13,5 16,9 3,3 4,7 4,12zm189 -33c0,7 -2,13 -7,17 -6,5 -13,7 -23,7l-9 0 0 29 -8 0 0 -75 19 0c19,0 28,7 28,22zm-39 16l8 0c8,0 14,-1 17,-4 4,-2 5,-6 5,-12 0,-5 -1,-8 -5,-11 -3,-2 -8,-3 -15,-3l-10 0 0 30zm73 -20c2,0 4,0 6,0l-1 8c-2,0 -4,0 -6,0 -4,0 -8,1 -12,5 -3,4 -4,8 -4,14l0 30 -9 0 0 -56 7 0 1 10 0 0c3,-3 5,-6 8,-8 3,-2 6,-3 10,-3zm57 29c0,9 -3,16 -7,22 -5,5 -11,7 -19,7 -5,0 -10,-1 -14,-3 -4,-3 -7,-6 -9,-10 -2,-5 -3,-10 -3,-16 0,-9 2,-16 7,-22 4,-5 11,-7 19,-7 8,0 14,2 19,8 4,5 7,12 7,21zm-43 0c0,7 1,13 4,16 3,4 7,6 13,6 5,0 10,-2 13,-5 3,-4 4,-10 4,-17 0,-7 -1,-13 -4,-16 -3,-4 -8,-6 -13,-6 -6,0 -10,2 -13,6 -3,3 -4,9 -4,16zm61 28l-21 -56 9 0 12 33c3,8 4,13 5,16l0 0c1,-2 2,-6 4,-12 2,-5 6,-18 13,-37l10 0 -22 56 -10 0zm83 -28c0,9 -3,16 -7,22 -5,5 -11,7 -20,7 -5,0 -9,-1 -13,-3 -4,-3 -7,-6 -9,-10 -2,-5 -3,-10 -3,-16 0,-9 2,-16 7,-22 4,-5 11,-7 19,-7 8,0 14,2 19,8 4,5 7,12 7,21zm-43 0c0,7 1,13 4,16 3,4 7,6 13,6 5,0 10,-2 12,-5 3,-4 5,-10 5,-17 0,-7 -2,-13 -5,-16 -2,-4 -7,-6 -12,-6 -6,0 -10,2 -13,6 -3,3 -4,9 -4,16zm86 28l-41 0 0 -6 31 -44 -29 0 0 -6 38 0 0 6 -30 44 31 0 0 6zm28 -75l21 0c10,0 18,1 22,4 5,3 7,8 7,15 0,4 -1,8 -4,11 -2,3 -6,4 -11,5l0 1c12,2 17,8 17,18 0,7 -2,12 -7,16 -4,3 -10,5 -19,5l-26 0 0 -75zm9 32l14 0c6,0 11,-1 14,-3 2,-2 4,-5 4,-10 0,-4 -2,-7 -5,-9 -3,-2 -8,-2 -14,-2l-13 0 0 24zm0 8l0 28 16 0c6,0 10,-1 13,-4 3,-2 5,-6 5,-11 0,-4 -2,-8 -5,-10 -3,-2 -8,-3 -14,-3l-15 0zm77 -22c3,0 5,0 7,0l-1 8c-3,0 -5,0 -7,0 -4,0 -8,1 -11,5 -3,4 -5,8 -5,14l0 30 -9 0 0 -56 7 0 1 10 1 0c2,-3 4,-6 7,-8 3,-2 7,-3 10,-3zm49 57l0 -36c0,-5 -1,-8 -3,-11 -2,-2 -5,-3 -10,-3 -6,0 -10,2 -13,5 -2,3 -4,8 -4,16l0 29 -8 0 0 -56 7 0 1 8 0 0c2,-3 5,-5 8,-7 3,-1 6,-2 10,-2 7,0 12,1 16,5 3,3 5,8 5,15l0 37 -9 0zm68 -28c0,9 -2,16 -7,22 -4,5 -11,7 -19,7 -5,0 -9,-1 -13,-3 -4,-3 -7,-6 -9,-10 -3,-5 -4,-10 -4,-16 0,-9 3,-16 7,-22 5,-5 11,-7 19,-7 8,0 15,2 19,8 5,5 7,12 7,21zm-43 0c0,7 2,13 5,16 2,4 7,6 12,6 6,0 10,-2 13,-5 3,-4 4,-10 4,-17 0,-7 -1,-13 -4,-16 -3,-4 -7,-6 -13,-6 -5,0 -10,2 -12,6 -3,3 -5,9 -5,16zm47 4l0 -8 25 0 0 8 -25 0zm68 9c0,5 -2,9 -6,12 -4,3 -9,4 -16,4 -8,0 -14,-1 -18,-3l0 -8c3,1 6,2 9,3 3,1 6,1 9,1 4,0 8,0 10,-2 2,-1 4,-3 4,-6 0,-3 -1,-4 -3,-6 -2,-2 -6,-3 -11,-6 -6,-2 -9,-3 -12,-5 -2,-1 -3,-3 -4,-5 -2,-2 -2,-4 -2,-6 0,-5 2,-9 6,-11 3,-3 8,-4 15,-4 6,0 12,1 18,3l-3 7c-6,-2 -11,-3 -16,-3 -4,0 -7,1 -9,2 -2,1 -3,3 -3,5 0,2 0,3 1,4 1,1 2,2 4,3 2,1 5,2 10,4 7,3 11,5 13,8 3,2 4,5 4,9z"/>
    <path class="fil1" d="M7417 2016c-8,0 -15,-2 -20,-7 -5,-5 -7,-12 -7,-21 0,-10 2,-17 7,-22 4,-6 10,-8 18,-8 7,0 12,2 16,7 5,4 7,11 7,18l0 6 -39 0c0,6 2,11 5,15 3,3 7,5 13,5 6,0 12,-1 18,-4l0 8c-3,1 -6,2 -8,2 -3,1 -6,1 -10,1zm-2 -51c-5,0 -9,1 -11,4 -3,3 -5,7 -5,13l29 0c0,-6 -1,-10 -3,-13 -3,-3 -6,-4 -10,-4zm41 50l-22 -56 9 0 13 33c2,8 4,13 4,16l1 0c0,-2 1,-6 3,-12 2,-5 7,-18 14,-37l9 0 -21 56 -10 0zm57 1c-8,0 -15,-2 -20,-7 -4,-5 -7,-12 -7,-21 0,-10 2,-17 7,-22 4,-6 10,-8 18,-8 7,0 13,2 17,7 4,4 6,11 6,18l0 6 -39 0c0,6 2,11 5,15 3,3 8,5 13,5 7,0 13,-1 18,-4l0 8c-3,1 -5,2 -8,2 -3,1 -6,1 -10,1zm-2 -51c-5,0 -8,1 -11,4 -3,3 -4,7 -5,13l30 0c0,-6 -1,-10 -4,-13 -2,-3 -6,-4 -10,-4zm56 -7c3,0 5,0 7,0l-1 8c-2,0 -4,0 -6,0 -5,0 -9,1 -12,5 -3,4 -5,8 -5,14l0 30 -8 0 0 -56 7 0 1 10 0 0c2,-3 5,-6 8,-8 3,-2 6,-3 9,-3zm-1021 148c0,7 -2,13 -7,17 -6,4 -13,6 -23,6l-9 0 0 30 -8 0 0 -75 19 0c19,0 28,7 28,22zm-39 16l8 0c8,0 14,-1 17,-4 4,-2 5,-6 5,-12 0,-5 -1,-9 -4,-11 -4,-3 -9,-4 -16,-4l-10 0 0 31zm91 17c0,7 -2,12 -7,16 -5,3 -12,5 -20,5 -9,0 -16,-1 -21,-3l0 -9c4,1 7,2 11,3 3,1 7,1 10,1 6,0 11,-1 14,-3 3,-2 4,-5 4,-9 0,-3 0,-5 -2,-7 -1,-1 -2,-3 -5,-4 -2,-2 -6,-3 -11,-5 -7,-3 -12,-5 -15,-9 -3,-3 -5,-8 -5,-13 0,-6 3,-11 7,-14 4,-4 10,-5 17,-5 8,0 15,1 21,4l-3 7c-6,-2 -12,-4 -18,-4 -5,0 -8,1 -11,3 -2,2 -4,5 -4,9 0,2 1,4 2,6 1,2 2,3 5,5 2,1 5,3 10,4 8,3 13,6 16,9 3,4 5,8 5,13zm-41 -78l6 0c4,2 8,6 12,9 4,-4 8,-7 11,-9l6 0 0 1 -3 4c-5,5 -9,9 -10,12l-9 0c0,-2 -2,-4 -3,-6 -2,-2 -5,-5 -10,-10l0 -1zm291 45c0,7 -2,13 -7,17 -6,4 -13,6 -23,6l-9 0 0 30 -8 0 0 -75 19 0c19,0 28,7 28,22zm-39 16l8 0c8,0 14,-1 17,-4 4,-2 5,-6 5,-12 0,-5 -1,-9 -5,-11 -3,-3 -8,-4 -15,-4l-10 0 0 31zm73 -21c2,0 4,1 6,1l-1 8c-2,0 -4,-1 -6,-1 -4,0 -8,2 -12,6 -3,4 -4,8 -4,14l0 30 -9 0 0 -56 7 0 1 10 0 0c3,-4 5,-7 8,-9 3,-2 6,-3 10,-3zm57 30c0,9 -3,16 -7,21 -5,5 -11,8 -19,8 -5,0 -10,-1 -14,-3 -4,-3 -7,-6 -9,-11 -2,-4 -3,-9 -3,-15 0,-9 2,-17 7,-22 4,-5 11,-8 19,-8 8,0 14,3 19,8 4,6 7,13 7,22zm-43 0c0,7 1,12 4,16 3,4 7,6 13,6 5,0 10,-2 13,-6 3,-4 4,-9 4,-16 0,-7 -1,-13 -4,-17 -3,-3 -8,-5 -13,-5 -6,0 -10,2 -13,5 -3,4 -4,9 -4,17zm61 28l-21 -56 9 0 12 33c3,8 4,13 5,15l0 0c1,-2 2,-5 4,-11 2,-6 6,-18 13,-37l10 0 -22 56 -10 0zm83 -28c0,9 -3,16 -7,21 -5,5 -11,8 -20,8 -5,0 -9,-1 -13,-3 -4,-3 -7,-6 -9,-11 -2,-4 -3,-9 -3,-15 0,-9 2,-17 7,-22 4,-5 11,-8 19,-8 8,0 14,3 19,8 4,6 7,13 7,22zm-43 0c0,7 1,12 4,16 3,4 7,6 13,6 5,0 10,-2 12,-6 3,-4 5,-9 5,-16 0,-7 -2,-13 -5,-17 -2,-3 -7,-5 -12,-5 -6,0 -10,2 -13,5 -3,4 -4,9 -4,17zm86 28l-41 0 0 -6 31 -44 -29 0 0 -6 38 0 0 6 -30 43 31 0 0 7zm71 -20c0,7 -3,12 -8,16 -4,3 -11,5 -19,5 -9,0 -16,-1 -21,-3l0 -9c3,1 7,2 10,3 4,1 8,1 11,1 6,0 10,-1 13,-3 3,-2 5,-5 5,-9 0,-3 -1,-5 -2,-7 -1,-1 -3,-3 -5,-4 -3,-2 -6,-3 -11,-5 -7,-3 -12,-5 -15,-9 -3,-3 -5,-8 -5,-13 0,-6 2,-11 7,-14 4,-4 10,-5 17,-5 8,0 14,1 21,4l-3 7c-6,-2 -12,-4 -18,-4 -5,0 -8,1 -11,3 -3,2 -4,5 -4,9 0,2 1,4 1,6 1,2 3,3 5,5 3,1 6,3 11,4 8,3 13,6 16,9 3,4 5,8 5,13zm-41 -78l6 0c4,2 8,6 11,9 5,-4 9,-7 12,-9l6 0 0 1 -4 4c-5,5 -8,9 -9,12l-9 0c-1,-2 -2,-4 -4,-6 -1,-2 -5,-5 -9,-10l0 -1zm74 99c-4,0 -7,-1 -10,-2 -3,-1 -5,-3 -8,-6l0 0c0,3 0,6 0,9l0 23 -8 0 0 -81 7 0 1 7 0 0c3,-3 5,-5 8,-6 3,-2 6,-3 10,-3 8,0 13,3 18,8 4,5 6,12 6,22 0,9 -2,16 -7,21 -4,6 -9,8 -17,8zm-1 -51c-6,0 -10,1 -13,5 -2,3 -3,8 -4,15l0 2c0,8 2,13 4,17 3,3 7,5 13,5 5,0 9,-2 12,-6 2,-4 4,-9 4,-16 0,-7 -2,-13 -4,-17 -3,-3 -7,-5 -12,-5zm41 50l-8 0 0 -56 8 0 0 56zm-9 -72c0,-2 0,-3 1,-4 1,-1 3,-1 4,-1 1,0 3,0 4,1 1,1 1,2 1,4 0,2 0,4 -1,5 -1,0 -3,1 -4,1 -1,0 -3,-1 -4,-1 -1,-1 -1,-3 -1,-5zm39 66c1,0 3,0 4,0 2,-1 3,-1 4,-1l0 7c-1,0 -3,0 -5,1 -1,0 -3,0 -4,0 -11,0 -17,-6 -17,-17l0 -34 -8 0 0 -4 8 -3 4 -13 5 0 0 14 16 0 0 6 -16 0 0 33c0,4 1,6 2,8 2,2 4,3 7,3zm47 6l-2 -8 0 0c-3,4 -6,6 -9,7 -3,1 -6,2 -10,2 -6,0 -10,-1 -14,-4 -3,-3 -4,-7 -4,-13 0,-11 9,-17 27,-18l10 0 0 -3c0,-5 -1,-8 -3,-10 -2,-2 -5,-3 -9,-3 -5,0 -10,1 -16,4l-3 -7c3,-1 6,-2 9,-3 4,-1 7,-1 10,-1 7,0 12,1 15,4 3,3 5,8 5,14l0 39 -6 0zm-20 -6c6,0 10,-1 13,-4 3,-3 4,-7 4,-13l0 -5 -8 1c-7,0 -12,1 -15,3 -3,2 -4,5 -4,9 0,3 1,5 3,7 1,1 4,2 7,2zm-2 -59c2,-2 4,-5 6,-8 2,-3 3,-6 4,-8l11 0 0 1c-2,2 -4,5 -7,8 -3,4 -6,6 -8,8l-6 0 0 -1zm47 65l-8 0 0 -80 8 0 0 80zm20 -29c2,-2 4,-5 7,-8l18 -19 10 0 -23 24 25 32 -10 0 -20 -27 -7 6 0 21 -8 0 0 -80 8 0 0 42c0,2 0,5 0,9l0 0zm75 29l-2 -8 0 0c-3,4 -6,6 -9,7 -2,1 -6,2 -10,2 -6,0 -10,-1 -13,-4 -3,-3 -5,-7 -5,-13 0,-11 9,-17 27,-18l10 0 0 -3c0,-5 -1,-8 -3,-10 -2,-2 -5,-3 -9,-3 -5,0 -10,1 -16,4l-3 -7c3,-1 6,-2 9,-3 4,-1 7,-1 10,-1 7,0 12,1 15,4 4,3 5,8 5,14l0 39 -6 0zm-19 -6c5,0 9,-1 12,-4 3,-3 5,-7 5,-13l0 -5 -9 1c-7,0 -12,1 -15,3 -3,2 -4,5 -4,9 0,3 1,5 3,7 2,1 4,2 8,2zm-859 96c0,8 -2,14 -7,18 -6,4 -13,6 -23,6l-9 0 0 30 -8 0 0 -76 19 0c19,0 28,8 28,22zm-39 17l8 0c8,0 14,-2 17,-4 4,-3 5,-7 5,-12 0,-5 -1,-9 -4,-11 -4,-3 -9,-4 -16,-4l-10 0 0 31zm91 17c0,6 -2,12 -7,15 -5,4 -12,6 -20,6 -9,0 -16,-1 -21,-4l0 -8c4,1 7,2 11,3 3,1 7,1 10,1 6,0 11,-1 14,-3 3,-2 4,-6 4,-9 0,-3 0,-5 -2,-7 -1,-2 -2,-3 -5,-4 -2,-2 -6,-3 -11,-5 -7,-3 -12,-6 -15,-9 -3,-4 -5,-8 -5,-14 0,-5 3,-10 7,-14 4,-3 10,-5 17,-5 8,0 15,2 21,4l-3 8c-6,-3 -12,-4 -18,-4 -5,0 -8,1 -11,3 -2,2 -4,5 -4,8 0,3 1,5 2,7 1,2 2,3 5,4 2,2 5,3 10,5 8,3 13,6 16,9 3,3 5,8 5,13zm8 -56l22 0c10,0 17,2 21,5 5,3 7,8 7,14 0,5 -1,8 -4,11 -2,3 -6,5 -11,6l0 0c12,2 18,8 18,18 0,7 -3,12 -7,16 -5,4 -11,6 -19,6l-27 0 0 -76zm9 33l15 0c6,0 10,-1 13,-3 3,-2 4,-5 4,-10 0,-4 -1,-7 -4,-9 -3,-2 -8,-3 -15,-3l-13 0 0 25zm0 7l0 28 16 0c6,0 11,-1 14,-3 3,-3 4,-6 4,-11 0,-5 -1,-8 -4,-11 -4,-2 -8,-3 -15,-3l-15 0zm233 -18c0,8 -2,14 -7,18 -6,4 -13,6 -23,6l-9 0 0 30 -8 0 0 -76 19 0c19,0 28,8 28,22zm-39 17l8 0c8,0 14,-2 17,-4 4,-3 5,-7 5,-12 0,-5 -1,-9 -5,-11 -3,-3 -8,-4 -15,-4l-10 0 0 31zm73 -21c2,0 4,0 6,1l-1 8c-2,-1 -4,-1 -6,-1 -4,0 -8,2 -12,6 -3,3 -4,8 -4,13l0 31 -9 0 0 -57 7 0 1 11 0 0c3,-4 5,-7 8,-9 3,-2 6,-3 10,-3zm57 29c0,10 -3,17 -7,22 -5,5 -11,8 -19,8 -5,0 -10,-1 -14,-4 -4,-2 -7,-6 -9,-10 -2,-4 -3,-10 -3,-16 0,-9 2,-16 7,-21 4,-5 11,-8 19,-8 8,0 14,3 19,8 4,5 7,12 7,21zm-43 0c0,8 1,13 4,17 3,4 7,6 13,6 5,0 10,-2 13,-6 3,-4 4,-9 4,-17 0,-7 -1,-12 -4,-16 -3,-4 -8,-5 -13,-5 -6,0 -10,1 -13,5 -3,4 -4,9 -4,16zm61 29l-21 -57 9 0 12 34c3,8 4,13 5,15l0 0c1,-2 2,-6 4,-11 2,-6 6,-18 13,-38l10 0 -22 57 -10 0zm83 -29c0,10 -3,17 -7,22 -5,5 -11,8 -20,8 -5,0 -9,-1 -13,-4 -4,-2 -7,-6 -9,-10 -2,-4 -3,-10 -3,-16 0,-9 2,-16 7,-21 4,-5 11,-8 19,-8 8,0 14,3 19,8 4,5 7,12 7,21zm-43 0c0,8 1,13 4,17 3,4 7,6 13,6 5,0 10,-2 12,-6 3,-4 5,-9 5,-17 0,-7 -2,-12 -5,-16 -2,-4 -7,-5 -12,-5 -6,0 -10,1 -13,5 -3,4 -4,9 -4,16zm86 29l-41 0 0 -6 31 -44 -29 0 0 -7 38 0 0 7 -30 43 31 0 0 7zm71 -20c0,6 -3,12 -8,15 -4,4 -11,6 -19,6 -9,0 -16,-1 -21,-4l0 -8c3,1 7,2 10,3 4,1 8,1 11,1 6,0 10,-1 13,-3 3,-2 5,-6 5,-9 0,-3 -1,-5 -2,-7 -1,-2 -3,-3 -5,-4 -3,-2 -6,-3 -11,-5 -7,-3 -12,-6 -15,-9 -3,-4 -5,-8 -5,-14 0,-5 2,-10 7,-14 4,-3 10,-5 17,-5 8,0 14,2 21,4l-3 8c-6,-3 -12,-4 -18,-4 -5,0 -8,1 -11,3 -3,2 -4,5 -4,8 0,3 1,5 1,7 1,2 3,3 5,4 3,2 6,3 11,5 8,3 13,6 16,9 3,3 5,8 5,13zm25 14c2,0 3,0 5,-1 1,0 2,0 3,0l0 6c-1,1 -2,1 -4,1 -2,1 -4,1 -5,1 -11,0 -16,-6 -16,-17l0 -34 -9 0 0 -4 9 -4 3 -12 5 0 0 13 16 0 0 7 -16 0 0 33c0,4 1,6 2,8 2,2 4,3 7,3zm47 6l-2 -8 0 0c-3,3 -6,6 -9,7 -2,1 -6,2 -10,2 -6,0 -10,-2 -13,-5 -3,-2 -5,-7 -5,-12 0,-11 9,-17 27,-18l10 0 0 -4c0,-4 -1,-7 -3,-9 -2,-3 -5,-4 -9,-4 -5,0 -10,2 -16,5l-3 -7c3,-1 6,-3 10,-3 3,-1 6,-2 10,-2 6,0 11,2 14,5 4,3 5,8 5,14l0 39 -6 0zm-19 -6c5,0 9,-2 12,-5 3,-3 5,-7 5,-12l0 -5 -9 0c-7,1 -11,2 -14,4 -3,1 -5,4 -5,8 0,3 1,6 3,7 2,2 4,3 8,3zm62 -52c2,0 5,0 7,1l-2 8c-2,-1 -4,-1 -6,-1 -4,0 -8,2 -11,6 -4,3 -5,8 -5,13l0 31 -9 0 0 -57 7 0 1 11 1 0c2,-4 4,-7 7,-9 3,-2 6,-3 10,-3zm32 59c-8,0 -15,-3 -20,-8 -4,-5 -7,-12 -7,-21 0,-9 2,-16 7,-22 4,-5 10,-8 18,-8 7,0 13,3 17,7 4,5 6,11 6,19l0 5 -39 0c0,7 2,12 5,15 3,4 8,5 13,5 6,0 13,-1 18,-4l0 8c-3,1 -5,2 -8,3 -3,1 -6,1 -10,1zm-2 -52c-5,0 -8,2 -11,5 -3,3 -4,7 -5,12l30 0c0,-5 -1,-9 -4,-12 -2,-3 -6,-5 -10,-5zm-7 -14c2,-3 4,-5 6,-8 2,-3 3,-6 4,-8l11 0 0 1c-2,2 -4,5 -7,8 -3,3 -6,6 -8,8l-6 0 0 -1zm59 -11l22 0c10,0 17,2 21,5 5,3 7,8 7,14 0,5 -1,8 -4,11 -2,3 -6,5 -11,6l0 0c12,2 18,8 18,18 0,7 -3,12 -7,16 -5,4 -11,6 -19,6l-27 0 0 -76zm9 33l15 0c6,0 10,-1 13,-3 3,-2 4,-5 4,-10 0,-4 -1,-7 -4,-9 -3,-2 -8,-3 -15,-3l-13 0 0 25zm0 7l0 28 16 0c6,0 11,-1 14,-3 3,-3 4,-6 4,-11 0,-5 -1,-8 -4,-11 -4,-2 -8,-3 -15,-3l-15 0zm77 -22c3,0 5,0 7,1l-1 8c-2,-1 -4,-1 -6,-1 -5,0 -9,2 -12,6 -3,3 -5,8 -5,13l0 31 -8 0 0 -57 7 0 1 11 0 0c2,-4 5,-7 8,-9 3,-2 6,-3 9,-3zm50 58l0 -37c0,-4 -1,-8 -4,-10 -2,-2 -5,-3 -9,-3 -6,0 -11,1 -13,4 -3,3 -5,9 -5,16l0 30 -8 0 0 -57 7 0 1 8 1 0c1,-3 4,-5 7,-6 3,-2 7,-3 11,-3 6,0 12,2 15,5 3,3 5,9 5,16l0 37 -8 0zm68 -29c0,10 -3,17 -7,22 -5,5 -11,8 -20,8 -5,0 -9,-1 -13,-4 -4,-2 -7,-6 -9,-10 -2,-4 -3,-10 -3,-16 0,-9 2,-16 7,-21 4,-5 11,-8 19,-8 8,0 14,3 19,8 4,5 7,12 7,21zm-43 0c0,8 1,13 4,17 3,4 7,6 13,6 5,0 9,-2 12,-6 3,-4 5,-9 5,-17 0,-7 -2,-12 -5,-16 -3,-4 -7,-5 -12,-5 -6,0 -10,1 -13,5 -3,4 -4,9 -4,16z"/>
   </g>
  </g>
  <polygon class="fil5" points="5164,2432 4906,1877 4929,1866 5187,2422 "/>
  <polygon class="fil5" points="4970,2784 4630,3060 4614,3041 4954,2764 "/>
  <polygon class="fil5" points="4343,2765 4657,1902 4681,1910 4366,2773 "/>
  <polygon class="fil4" points="5020,1616 5470,1336 5483,1357 5033,1637 "/>
  <polygon class="fil5" points="6345,2991 5474,2770 5480,2745 6352,2967 "/>
  <polygon class="fil5" points="6533,2727 5894,1495 5916,1484 6555,2715 "/>
  <g id="_525925877024">
   <path class="fil4" d="M5657 1250c0,15 -5,27 -15,35 -11,9 -26,13 -45,13l-18 0 0 59 -17 0 0 -151 39 0c37,0 56,15 56,44zm-78 33l16 0c16,0 27,-3 34,-8 7,-5 10,-13 10,-24 0,-10 -3,-17 -10,-22 -6,-5 -16,-7 -30,-7l-20 0 0 61zm110 -77l42 0c20,0 35,3 44,9 9,6 13,16 13,29 0,9 -2,16 -7,22 -5,6 -13,9 -22,11l0 1c23,4 34,16 34,36 0,14 -4,24 -13,32 -10,7 -22,11 -39,11l-52 0 0 -151zm17 65l29 0c13,0 21,-2 27,-6 5,-4 8,-10 8,-20 0,-8 -3,-14 -9,-18 -6,-4 -16,-5 -29,-5l-26 0 0 49zm0 15l0 56 32 0c12,0 21,-2 27,-7 6,-5 9,-12 9,-22 0,-9 -3,-16 -9,-21 -6,-4 -16,-6 -29,-6l-30 0zm205 31c0,13 -5,24 -15,31 -9,7 -22,11 -39,11 -18,0 -32,-2 -41,-7l0 -17c6,3 13,5 20,6 7,2 14,3 22,3 11,0 20,-2 26,-7 6,-4 9,-10 9,-18 0,-6 -1,-10 -3,-13 -2,-4 -6,-7 -11,-9 -5,-3 -12,-6 -22,-10 -14,-5 -24,-11 -30,-18 -6,-7 -9,-16 -9,-27 0,-11 4,-21 13,-27 9,-7 20,-11 34,-11 15,0 29,3 42,8l-6 16c-12,-6 -24,-8 -36,-8 -9,0 -16,2 -22,6 -5,4 -8,9 -8,16 0,6 1,10 3,13 2,4 6,7 10,9 5,3 12,6 21,10 16,5 27,11 33,18 6,6 9,15 9,25z"/>
   <path class="fil4" d="M5736 1001c78,0 148,32 198,82 51,51 82,121 82,199 0,77 -31,147 -82,198 -50,51 -120,82 -198,82 -77,0 -147,-31 -198,-82 -51,-51 -82,-121 -82,-198 0,-78 31,-148 82,-199 51,-50 121,-82 198,-82zm181 100c-46,-46 -110,-75 -181,-75 -70,0 -134,29 -180,75 -47,46 -75,110 -75,181 0,70 28,134 75,180 46,46 110,75 180,75 71,0 135,-29 181,-75 46,-46 75,-110 75,-180 0,-71 -29,-135 -75,-181z"/>
  </g>
  <g id="_525925878272">
   <path class="fil4" d="M4646 1623c0,15 -5,27 -16,35 -10,8 -25,12 -44,12l-18 0 0 60 -17 0 0 -151 39 0c37,0 56,15 56,44zm-78 32l16 0c15,0 27,-2 34,-7 6,-5 10,-13 10,-24 0,-10 -3,-18 -10,-22 -6,-5 -17,-8 -30,-8l-20 0 0 61zm174 -62c-16,0 -29,5 -39,16 -10,11 -14,26 -14,45 0,20 4,35 13,46 10,11 23,16 40,16 10,0 22,-2 36,-5l0 15c-11,4 -23,6 -39,6 -22,0 -39,-7 -51,-20 -12,-14 -18,-33 -18,-58 0,-15 3,-29 8,-41 6,-11 15,-20 26,-27 11,-6 24,-9 38,-9 16,0 30,3 42,9l-8 15c-11,-6 -22,-8 -34,-8zm-38 -60l12 0c8,5 16,12 23,20 9,-9 16,-16 23,-20l12 0 0 3 -7 7c-10,10 -16,18 -20,24l-17 0c-1,-3 -4,-6 -7,-11 -4,-4 -10,-11 -19,-20l0 -3zm173 197l-51 -134 0 0c0,11 1,23 1,38l0 96 -16 0 0 -151 26 0 48 124 1 0 48 -124 26 0 0 151 -17 0 0 -97c0,-12 0,-24 1,-37l-1 0 -51 134 -15 0z"/>
   <path class="fil4" d="M4761 1374c77,0 147,31 198,82 50,51 82,121 82,198 0,78 -32,148 -82,199 -51,50 -121,82 -198,82 -78,0 -148,-32 -199,-82 -50,-51 -82,-121 -82,-199 0,-77 32,-147 82,-198 51,-51 121,-82 199,-82zm180 100c-46,-46 -110,-75 -180,-75 -71,0 -135,29 -181,75 -46,46 -75,110 -75,180 0,71 29,135 75,181 46,46 110,75 181,75 70,0 134,-29 180,-75 46,-46 75,-110 75,-181 0,-70 -29,-134 -75,-180z"/>
  </g>
  <g id="_525925877408">
   <path class="fil4" d="M5206 2660c0,15 -5,27 -15,35 -11,8 -25,12 -45,12l-18 0 0 60 -17 0 0 -151 39 0c38,0 56,15 56,44zm-78 32l16 0c16,0 27,-2 34,-7 7,-5 10,-13 10,-24 0,-10 -3,-18 -9,-22 -7,-5 -17,-8 -31,-8l-20 0 0 61zm195 35c0,13 -5,23 -14,31 -10,7 -23,11 -40,11 -17,0 -31,-2 -41,-7l0 -17c6,3 13,5 20,6 8,2 15,2 22,2 12,0 21,-2 27,-6 5,-5 8,-11 8,-19 0,-5 -1,-9 -3,-13 -2,-3 -5,-6 -10,-9 -5,-3 -13,-6 -23,-9 -14,-5 -24,-11 -30,-18 -6,-7 -9,-16 -9,-27 0,-12 5,-21 13,-28 9,-7 21,-10 35,-10 15,0 29,3 41,8l-5 15c-13,-5 -25,-7 -36,-7 -10,0 -17,2 -22,5 -5,5 -8,10 -8,17 0,5 1,10 3,13 2,3 5,6 10,9 4,3 11,6 21,9 15,6 26,12 32,19 6,6 9,14 9,25zm-81 -157l12 0c8,5 15,12 22,20 9,-9 17,-16 23,-20l12 0 0 3 -6 7c-10,10 -17,18 -20,24l-17 0c-2,-3 -4,-6 -8,-11 -3,-4 -9,-11 -18,-20l0 -3z"/>
   <path class="fil4" d="M5217 2411c77,0 148,31 198,82 51,51 82,121 82,198 0,78 -31,148 -82,199 -50,50 -121,82 -198,82 -77,0 -147,-32 -198,-82 -51,-51 -82,-121 -82,-199 0,-77 31,-147 82,-198 51,-51 121,-82 198,-82zm181 100c-47,-46 -110,-75 -181,-75 -70,0 -134,29 -181,75 -46,46 -74,110 -74,180 0,71 28,135 74,181 47,46 111,75 181,75 71,0 134,-29 181,-75 46,-46 74,-110 74,-181 0,-70 -28,-134 -74,-180z"/>
  </g>
  <g id="_525925879296">
   <path class="fil4" d="M4276 3006c0,15 -5,27 -16,35 -10,8 -25,12 -44,12l-18 0 0 59 -17 0 0 -150 39 0c37,0 56,14 56,44zm-78 32l16 0c15,0 27,-2 34,-7 6,-5 10,-14 10,-25 0,-10 -3,-17 -10,-22 -6,-5 -17,-7 -30,-7l-20 0 0 61zm195 34c0,14 -5,24 -15,31 -9,8 -22,11 -39,11 -18,0 -32,-2 -41,-6l0 -17c6,2 13,4 20,6 7,1 15,2 22,2 11,0 20,-2 26,-7 6,-4 9,-10 9,-18 0,-5 -1,-10 -3,-13 -2,-3 -6,-6 -11,-9 -5,-3 -12,-6 -22,-10 -14,-5 -24,-11 -30,-18 -6,-6 -9,-15 -9,-26 0,-12 4,-21 13,-28 9,-7 20,-10 35,-10 14,0 28,2 41,8l-6 15c-12,-5 -24,-8 -36,-8 -9,0 -16,2 -22,6 -5,4 -8,10 -8,17 0,5 1,9 3,13 2,3 6,6 10,9 5,3 12,6 21,9 16,6 27,12 33,18 6,7 9,15 9,25zm30 -110l43 0c20,0 35,3 43,9 9,6 14,15 14,28 0,9 -3,16 -8,22 -5,6 -12,10 -21,11l0 1c22,4 34,16 34,36 0,14 -5,24 -14,32 -9,8 -22,11 -38,11l-53 0 0 -150zm18 64l29 0c12,0 21,-2 27,-6 5,-3 8,-10 8,-19 0,-9 -3,-15 -9,-19 -6,-3 -16,-5 -29,-5l-26 0 0 49zm0 15l0 56 31 0c13,0 22,-2 28,-7 6,-4 9,-12 9,-22 0,-9 -3,-16 -9,-20 -7,-5 -16,-7 -29,-7l-30 0z"/>
   <path class="fil4" d="M4354 2757c78,0 148,31 198,82 51,51 82,121 82,198 0,77 -31,147 -82,198 -50,51 -120,82 -198,82 -77,0 -147,-31 -198,-82 -51,-51 -82,-121 -82,-198 0,-77 31,-147 82,-198 51,-51 121,-82 198,-82zm181 99c-46,-46 -110,-74 -181,-74 -70,0 -134,28 -180,74 -47,47 -75,111 -75,181 0,71 28,134 75,181 46,46 110,74 180,74 71,0 135,-28 181,-74 46,-47 75,-110 75,-181 0,-70 -29,-134 -75,-181z"/>
  </g>
  <g id="_525925880224">
   <path class="fil6" d="M6481 3014c0,14 -4,24 -12,31 -8,8 -19,12 -33,12 -15,0 -26,-3 -34,-7l0 -17c5,2 11,4 17,6 6,1 12,2 18,2 9,0 17,-2 22,-7 5,-4 7,-10 7,-18 0,-5 -1,-9 -3,-13 -1,-3 -4,-6 -8,-9 -4,-3 -11,-6 -19,-10 -12,-5 -20,-11 -25,-17 -5,-7 -8,-16 -8,-27 0,-12 4,-21 11,-28 8,-7 17,-10 29,-10 13,0 24,2 35,8l-5 15c-10,-5 -20,-8 -30,-8 -8,0 -14,2 -18,6 -5,4 -7,10 -7,17 0,5 1,9 3,13 1,3 4,6 8,9 4,3 9,6 17,9 13,6 22,12 27,18 5,7 8,15 8,25zm104 40l-15 -47 -51 0 -15 47 -15 0 50 -151 12 0 49 151 -15 0zm-20 -63l-14 -47c-2,-6 -4,-13 -6,-22 -2,7 -3,14 -6,22l-14 47 40 0zm143 63l-17 0 -46 -73 -13 14 0 59 -14 0 0 -150 14 0 0 74 57 -74 17 0 -50 65 52 85zm123 -75c0,24 -5,43 -15,57 -11,14 -25,21 -43,21 -18,0 -32,-7 -42,-21 -11,-13 -16,-33 -16,-57 0,-25 5,-44 16,-57 10,-14 24,-21 42,-21 18,0 33,7 43,21 10,14 15,33 15,57zm-100 0c0,20 3,36 11,46 7,11 18,16 31,16 14,0 25,-5 32,-16 7,-10 10,-26 10,-46 0,-20 -3,-36 -10,-46 -7,-11 -18,-16 -32,-16 -13,0 -24,5 -31,16 -8,10 -11,26 -11,46z"/>
   <path class="fil6" d="M6616 2699c78,0 148,31 199,82 50,50 82,121 82,198 0,77 -32,147 -82,198 -51,51 -121,82 -199,82 -77,0 -147,-31 -198,-82 -51,-51 -82,-121 -82,-198 0,-77 31,-148 82,-198 51,-51 121,-82 198,-82zm181 99c-46,-46 -110,-74 -181,-74 -70,0 -134,28 -180,74 -46,47 -75,110 -75,181 0,70 29,134 75,181 46,46 110,74 180,74 71,0 135,-28 181,-74 46,-47 75,-111 75,-181 0,-71 -29,-134 -75,-181z"/>
  </g>
  <g id="_525925879520">
   <path class="fil4" d="M1848 994c78,0 148,32 199,82 50,51 82,121 82,198 0,78 -32,148 -82,199 -51,50 -121,82 -199,82 -77,0 -147,-32 -198,-82 -51,-51 -82,-121 -82,-199 0,-77 31,-147 82,-198 51,-50 121,-82 198,-82zm181 100c-46,-46 -110,-75 -181,-75 -70,0 -134,29 -180,75 -46,46 -75,110 -75,180 0,71 29,135 75,181 46,46 110,75 180,75 71,0 135,-29 181,-75 46,-46 75,-110 75,-181 0,-70 -29,-134 -75,-180z"/>
   <path class="fil4" d="M1769 1243c0,15 -5,27 -15,35 -11,8 -25,12 -45,12l-18 0 0 60 -17 0 0 -151 39 0c38,0 56,15 56,44zm-78 32l16 0c16,0 27,-2 34,-7 7,-5 10,-13 10,-24 0,-10 -3,-18 -9,-22 -7,-5 -17,-8 -31,-8l-20 0 0 61zm110 -76l43 0c20,0 34,3 43,9 9,6 13,15 13,28 0,9 -2,17 -7,23 -5,5 -12,9 -22,11l0 1c23,4 34,16 34,36 0,13 -4,24 -13,31 -9,8 -22,12 -38,12l-53 0 0 -151zm18 65l28 0c13,0 22,-2 27,-6 6,-4 8,-11 8,-20 0,-8 -3,-14 -9,-18 -6,-4 -15,-6 -29,-6l-25 0 0 50zm0 14l0 57 31 0c12,0 21,-3 27,-7 7,-5 10,-12 10,-22 0,-10 -3,-17 -10,-21 -6,-4 -16,-7 -28,-7l-30 0zm204 32c0,13 -5,23 -15,31 -9,7 -22,11 -39,11 -18,0 -31,-2 -41,-7l0 -17c6,3 13,5 20,6 7,2 15,2 22,2 12,0 20,-2 26,-6 6,-5 9,-11 9,-19 0,-5 -1,-9 -3,-12 -2,-4 -6,-7 -11,-10 -4,-3 -12,-6 -22,-9 -14,-5 -24,-11 -30,-18 -6,-7 -9,-16 -9,-27 0,-12 4,-21 13,-28 9,-7 20,-10 35,-10 15,0 28,3 41,8l-5 15c-13,-5 -25,-7 -37,-7 -9,0 -16,2 -21,6 -6,4 -8,9 -8,16 0,5 1,10 3,13 1,3 5,6 9,9 5,3 12,6 21,9 16,6 27,12 33,19 6,6 9,14 9,25z"/>
  </g>
  <g id="_525925879936">
   <path class="fil4" d="M885 1364c78,0 148,31 198,82 51,50 83,120 83,198 0,77 -32,147 -83,198 -50,51 -120,82 -198,82 -77,0 -147,-31 -198,-82 -51,-51 -82,-121 -82,-198 0,-78 31,-148 82,-198 51,-51 121,-82 198,-82zm181 99c-46,-46 -110,-75 -181,-75 -70,0 -134,29 -180,75 -46,46 -75,110 -75,181 0,70 29,134 75,180 46,47 110,75 180,75 71,0 135,-28 181,-75 46,-46 75,-110 75,-180 0,-71 -29,-135 -75,-181z"/>
   <path class="fil4" d="M771 1612c0,16 -5,27 -16,36 -10,8 -25,12 -44,12l-18 0 0 59 -18 0 0 -151 39 0c38,0 57,15 57,44zm-78 33l16 0c15,0 26,-3 33,-8 7,-5 11,-13 11,-24 0,-10 -4,-17 -10,-22 -7,-5 -17,-7 -31,-7l-19 0 0 61zm174 -63c-17,0 -30,6 -39,17 -10,11 -15,26 -15,45 0,20 5,35 14,46 9,10 23,16 40,16 10,0 22,-2 36,-6l0 15c-11,4 -24,6 -39,6 -22,0 -39,-6 -51,-20 -12,-13 -18,-33 -18,-57 0,-16 2,-29 8,-41 6,-12 14,-21 25,-27 11,-6 24,-10 39,-10 16,0 30,3 42,9l-8 15c-11,-5 -23,-8 -34,-8zm-38 -59l12 0c8,5 15,11 23,19 8,-9 16,-15 22,-19l13 0 0 2 -7 7c-10,10 -17,18 -20,24l-17 0c-1,-2 -4,-6 -8,-10 -3,-5 -9,-11 -18,-21l0 -2zm173 196l-51 -133 -1 0c1,10 2,23 2,37l0 96 -16 0 0 -151 26 0 48 125 0 0 49 -125 26 0 0 151 -18 0 0 -97c0,-11 1,-23 2,-36l-1 0 -52 133 -14 0z"/>
  </g>
  <g id="_525925882720">
   <path class="fil4" d="M1305 2390c77,0 147,31 198,82 51,51 82,121 82,198 0,78 -31,148 -82,198 -51,51 -121,83 -198,83 -78,0 -148,-32 -198,-83 -51,-50 -82,-120 -82,-198 0,-77 31,-147 82,-198 50,-51 120,-82 198,-82zm180 100c-46,-47 -110,-75 -180,-75 -71,0 -135,28 -181,75 -46,46 -75,110 -75,180 0,71 29,135 75,181 46,46 110,75 181,75 70,0 134,-29 180,-75 47,-46 75,-110 75,-181 0,-70 -28,-134 -75,-180z"/>
   <path class="fil4" d="M1294 2639c0,15 -5,27 -15,35 -11,8 -26,12 -45,12l-18 0 0 60 -17 0 0 -151 39 0c37,0 56,15 56,44zm-78 32l16 0c16,0 27,-2 34,-7 7,-5 10,-13 10,-24 0,-10 -3,-18 -10,-23 -6,-4 -16,-7 -30,-7l-20 0 0 61zm195 35c0,13 -5,23 -15,31 -9,7 -22,11 -39,11 -18,0 -31,-3 -41,-7l0 -17c6,2 13,5 20,6 8,2 15,2 22,2 12,0 20,-2 26,-6 6,-5 9,-11 9,-19 0,-5 -1,-9 -3,-13 -2,-3 -6,-6 -10,-9 -5,-3 -13,-6 -23,-9 -14,-5 -24,-11 -30,-18 -6,-7 -9,-16 -9,-27 0,-12 4,-21 13,-28 9,-7 20,-10 35,-10 15,0 29,3 41,8l-5 15c-13,-5 -25,-8 -37,-8 -9,0 -16,2 -21,6 -6,4 -8,10 -8,17 0,5 1,10 3,13 2,3 5,6 9,9 5,3 12,6 21,9 16,6 27,12 33,18 6,7 9,15 9,26zm-81 -157l12 0c7,5 15,12 22,20 9,-9 17,-16 23,-20l12 0 0 3 -7 7c-9,10 -16,18 -19,24l-17 0c-2,-3 -4,-7 -8,-11 -3,-4 -9,-11 -18,-20l0 -3z"/>
  </g>
  <g id="_525925881088">
   <path class="fil4" d="M429 2757c77,0 147,31 198,82 51,51 82,121 82,198 0,77 -31,147 -82,198 -51,51 -121,82 -198,82 -78,0 -148,-31 -198,-82 -51,-51 -82,-121 -82,-198 0,-77 31,-147 82,-198 50,-51 120,-82 198,-82zm180 99c-46,-46 -110,-74 -180,-74 -71,0 -135,28 -181,74 -46,47 -75,111 -75,181 0,71 29,134 75,181 46,46 110,74 181,74 70,0 134,-28 180,-74 47,-47 75,-110 75,-181 0,-70 -28,-134 -75,-181z"/>
   <path class="fil4" d="M350 3006c0,15 -5,27 -16,35 -10,8 -25,12 -44,12l-18 0 0 59 -18 0 0 -150 39 0c38,0 57,14 57,44zm-78 32l16 0c15,0 26,-2 33,-7 7,-5 11,-14 11,-25 0,-10 -4,-17 -10,-22 -7,-5 -17,-7 -31,-7l-19 0 0 61zm194 34c0,14 -4,24 -14,31 -10,8 -23,11 -39,11 -18,0 -32,-2 -41,-6l0 -17c6,2 13,4 20,6 7,1 14,2 22,2 11,0 20,-2 26,-7 6,-4 9,-10 9,-18 0,-5 -1,-10 -3,-13 -2,-3 -6,-6 -11,-9 -5,-3 -12,-6 -22,-10 -14,-5 -24,-11 -30,-18 -6,-6 -9,-15 -9,-26 0,-12 4,-21 13,-28 8,-7 20,-10 34,-10 15,0 29,2 42,8l-6 15c-12,-5 -24,-8 -36,-8 -9,0 -17,2 -22,6 -5,4 -8,10 -8,17 0,5 1,9 3,13 2,3 5,6 10,9 5,3 12,6 21,9 16,6 27,12 33,18 6,7 8,15 8,25zm31 -110l43 0c20,0 34,3 43,9 9,6 14,15 14,28 0,9 -3,16 -8,22 -5,6 -12,10 -22,11l0 1c23,4 35,16 35,36 0,14 -5,24 -14,32 -9,8 -22,11 -38,11l-53 0 0 -150zm18 64l29 0c12,0 21,-2 26,-6 6,-3 9,-10 9,-19 0,-9 -4,-15 -10,-19 -6,-3 -15,-5 -28,-5l-26 0 0 49zm0 15l0 56 31 0c12,0 22,-2 28,-7 6,-4 9,-12 9,-22 0,-9 -3,-16 -9,-20 -7,-5 -16,-7 -29,-7l-30 0z"/>
  </g>
 </g>
</svg>
